<?xml version="1.0" encoding="utf-8"?>
<!-- Generator: Adobe Illustrator 21.0.2, SVG Export Plug-In . SVG Version: 6.00 Build 0)  -->
<svg version="1.1" xmlns="http://www.w3.org/2000/svg" xmlns:xlink="http://www.w3.org/1999/xlink" x="0px" y="0px"
	 viewBox="0 0 273 353" style="enable-background:new 0 0 273 353;" xml:space="preserve">
<style type="text/css">
	.st0{fill:#684B18;}
	.st1{fill:#010101;}
	.st2{fill:#EAB632;}
	.st3{fill:#91774A;}
	.st4{fill:#B77F53;}
	.st5{fill:#7D7D7D;}
	.st6{fill:#EEB886;}
	.st7{fill:#309AC4;}
	.st8{fill:#502B13;}
	.st9{fill:#753F1A;}
	.st10{fill:none;stroke:#684C1E;stroke-miterlimit:10;}
	.st11{fill:#5B696D;stroke:#000000;stroke-width:3;stroke-miterlimit:10;}
	.st12{fill:#309AC4;stroke:#2E9AC4;stroke-miterlimit:10;}
	.st13{fill:#309AC4;stroke:#020202;stroke-miterlimit:10;}
	.st14{fill:#2F9AC4;stroke:#000000;stroke-miterlimit:10;}
	.st15{fill:none;stroke:#000000;stroke-width:2;stroke-miterlimit:10;}
	.st16{fill:#FFFFFF;stroke:#000000;stroke-miterlimit:10;}
</style>
<g id="Layer_1">
	<g>
		<g id="XMLID_2_">
			<g>
				<path class="st0" d="M241.7,102.1c0,1,0,2,0,3c0,15.8-3.8,30.8-10.4,43.9c1.4-8,2.1-16.3,2.1-24.7c0-9.3-1.8-18.1-5.2-26.3
					c-0.1-0.6-0.3-1.3-0.5-1.9c-1.3-5.3-3.1-10.8-5.4-16.3c-2.4-5.5-5.2-11.1-8.8-16.2c-0.9-1.3-1.8-2.6-2.8-3.9c-1-1.2-2-2.6-3-3.7
					l0,0C199.4,33.9,178,20,160.7,12c0,0,0,0,0.1,0c0.7,0.1,1.4,0.1,2.1,0.2c0.7,0.1,1.3,0.2,1.9,0.2c0.2,0,0.4,0.1,0.6,0.1
					c0.4,0.1,0.9,0.1,1.3,0.2c0.3,0.1,0.7,0.1,1,0.2c0.4,0.1,0.8,0.2,1.2,0.2c0.3,0.1,0.6,0.1,0.9,0.2c0.4,0.1,0.8,0.2,1.2,0.2
					c0.3,0.1,0.5,0.1,0.8,0.2c0.5,0.1,0.9,0.2,1.4,0.3c0.2,0.1,0.4,0.1,0.6,0.2c0.5,0.1,1,0.3,1.5,0.4c0.8,0.2,1.7,0.5,2.5,0.7
					c2.5,0.8,5,1.7,7.4,2.7c1.3,0.5,2.5,1.1,3.7,1.6c0.7,0.3,1.3,0.6,2,1c0.4,0.2,0.8,0.4,1.2,0.6c0.8,0.4,1.6,0.9,2.4,1.3
					c0.6,0.3,1.2,0.7,1.8,1c0.5,0.3,1,0.6,1.5,0.9c1.1,0.7,2.2,1.4,3.2,2.1c0.3,0.2,0.6,0.4,0.9,0.6c0.4,0.3,0.9,0.6,1.3,0.9
					c0.7,0.5,1.4,1,2.1,1.6c0.4,0.3,0.7,0.6,1.1,0.8c0.7,0.5,1.4,1.1,2,1.7c0.4,0.3,0.8,0.7,1.2,1c0.5,0.4,1,0.9,1.6,1.4
					c1,0.9,2,1.9,3,2.8c0.5,0.5,1,1,1.4,1.5c1,1,1.9,2,2.8,3.1c0.4,0.5,0.9,1,1.3,1.5c0.3,0.3,0.5,0.7,0.8,1
					c0.3,0.4,0.6,0.7,0.9,1.1c0.1,0.1,0.2,0.2,0.2,0.3c0.4,0.5,0.8,1,1.2,1.5c0.4,0.5,0.8,1,1.2,1.6c0.1,0.1,0.2,0.3,0.3,0.4
					c0.4,0.5,0.7,1,1.1,1.6c0.4,0.5,0.7,1.1,1.1,1.6c0.5,0.7,1,1.5,1.4,2.2c0.3,0.5,0.6,1.1,0.9,1.6c0.1,0.1,0.1,0.2,0.2,0.3
					c0.2,0.4,0.5,0.8,0.7,1.2c0.2,0.4,0.4,0.7,0.6,1.1c0.3,0.5,0.6,1,0.8,1.6c0.2,0.4,0.4,0.7,0.6,1.1c0.2,0.4,0.4,0.7,0.5,1.1
					c1.6,3.3,3,6.7,4.2,10.2c0.2,0.7,0.5,1.4,0.7,2.1c0,0.1,0.1,0.2,0.1,0.2c0.2,0.6,0.4,1.1,0.5,1.7c0.1,0.4,0.2,0.8,0.3,1.2
					c0.1,0.5,0.3,1,0.4,1.5c0.2,0.6,0.3,1.3,0.5,1.9c0,0.2,0.1,0.3,0.1,0.5c0.1,0.6,0.3,1.2,0.4,1.8c0,0.1,0,0.2,0.1,0.3
					c0.1,0.5,0.2,1.1,0.3,1.6c0.1,0.4,0.2,0.8,0.2,1.3c0,0.2,0.1,0.4,0.1,0.6c0.1,0.4,0.2,0.9,0.2,1.3c0.1,0.5,0.2,1,0.2,1.5
					c0,0.2,0.1,0.5,0.1,0.7c0.1,0.5,0.1,1,0.2,1.6c0,0.2,0.1,0.4,0.1,0.6c0.1,0.5,0.1,1,0.2,1.6c0.1,1,0.2,2,0.3,3.1
					c0.1,0.8,0.1,1.5,0.1,2.3C241.7,100.9,241.7,101.5,241.7,102.1z"/>
				<path class="st1" d="M241.8,105.1c0-1,0-2,0-3c0-0.6,0-1.2-0.1-1.8c0-0.8-0.1-1.5-0.1-2.3c-0.1-1-0.2-2.1-0.3-3.1
					c-0.1-0.5-0.1-1.1-0.2-1.6c0-0.2-0.1-0.4-0.1-0.6c-0.1-0.5-0.1-1-0.2-1.6c0-0.2-0.1-0.5-0.1-0.7c-0.1-0.5-0.1-1-0.2-1.5
					c-0.1-0.4-0.1-0.9-0.2-1.3c0-0.2-0.1-0.4-0.1-0.6c-0.1-0.4-0.2-0.8-0.2-1.3c-0.1-0.5-0.2-1.1-0.3-1.6c0-0.1,0-0.2-0.1-0.3
					c-0.1-0.6-0.3-1.2-0.4-1.8c0-0.2-0.1-0.3-0.1-0.5c-0.2-0.6-0.3-1.3-0.5-1.9c-0.1-0.5-0.3-1-0.4-1.5c-0.1-0.4-0.2-0.8-0.3-1.2
					c-0.2-0.6-0.4-1.1-0.5-1.7c0-0.1-0.1-0.2-0.1-0.2c-0.2-0.7-0.5-1.4-0.7-2.1c-1.2-3.5-2.6-6.9-4.2-10.2c-0.2-0.4-0.4-0.7-0.5-1.1
					c-0.2-0.4-0.4-0.7-0.6-1.1c-0.3-0.5-0.5-1-0.8-1.6c-0.2-0.4-0.4-0.7-0.6-1.1c-0.2-0.4-0.4-0.8-0.7-1.2c-0.1-0.1-0.1-0.2-0.2-0.3
					c-0.3-0.5-0.6-1.1-0.9-1.6c-0.5-0.8-0.9-1.5-1.4-2.2c-0.3-0.5-0.7-1.1-1.1-1.6c-0.3-0.5-0.7-1.1-1.1-1.6
					c-0.1-0.1-0.2-0.3-0.3-0.4c-0.4-0.5-0.8-1.1-1.2-1.6c-0.4-0.5-0.8-1-1.2-1.5c-0.1-0.1-0.2-0.2-0.2-0.3c-0.3-0.4-0.6-0.7-0.9-1.1
					c-0.3-0.3-0.5-0.7-0.8-1c-0.4-0.5-0.8-1-1.3-1.5c-0.9-1-1.9-2.1-2.8-3.1c-0.5-0.5-1-1-1.4-1.5c-1-1-2-1.9-3-2.8
					c-0.5-0.5-1-0.9-1.6-1.4c-0.4-0.4-0.8-0.7-1.2-1c-0.7-0.6-1.4-1.1-2-1.7c-0.4-0.3-0.7-0.6-1.1-0.8c-0.7-0.5-1.4-1.1-2.1-1.6
					c-0.4-0.3-0.9-0.6-1.3-0.9c-0.3-0.2-0.6-0.4-0.9-0.6c-1.1-0.7-2.1-1.4-3.2-2.1c-0.5-0.3-1-0.6-1.5-0.9c-0.6-0.4-1.2-0.7-1.8-1
					c-0.8-0.4-1.6-0.9-2.4-1.3c-0.4-0.2-0.8-0.4-1.2-0.6c-0.7-0.3-1.3-0.6-2-1c-1.2-0.6-2.5-1.1-3.7-1.6c-2.4-1-4.9-1.9-7.4-2.7
					c-0.8-0.3-1.6-0.5-2.5-0.7c-0.5-0.1-1-0.3-1.5-0.4c-0.2-0.1-0.4-0.1-0.6-0.2c-0.5-0.1-0.9-0.2-1.4-0.3c-0.3-0.1-0.5-0.1-0.8-0.2
					c-0.4-0.1-0.8-0.2-1.2-0.2c-0.3-0.1-0.6-0.1-0.9-0.2c-0.4-0.1-0.8-0.2-1.2-0.2c-0.3-0.1-0.7-0.1-1-0.2c-0.4-0.1-0.8-0.1-1.3-0.2
					c-0.2,0-0.4-0.1-0.6-0.1c-0.6-0.1-1.3-0.2-1.9-0.2c-0.7-0.1-1.4-0.2-2.1-0.2c0,0,0,0-0.1,0c-2.7-0.3-5.4-0.4-8.2-0.4
					c-23.1,0-44.2,9.2-60,24.3c-18,17.1-29.2,41.8-29.2,69.2c0,7.4,0.8,14.5,2.4,21.4c0.3,1.6,0.8,3.2,1.2,4.7
					c0.2,0.7,0.4,1.5,0.6,2.2c0,0.1,0.1,0.2,0.1,0.3c0.2,0.7,0.4,1.4,0.7,2.1c0.5,1.5,1,3,1.6,4.5c0,0,0,0.1,0,0.1
					c0.6,1.5,1.2,2.9,1.8,4.4c0.6,1.4,1.3,2.8,2,4.2c0.3,1.6,0.6,3.2,0.9,4.8c-8.4-14.7-12.8-31.4-12.8-48.7c0-52.4,40.7-95,90.8-95
					s90.8,42.6,90.8,95c0,17.3-4.4,34-12.8,48.7c0.3-1.6,0.6-3.2,0.9-4.9C238,135.9,241.8,121,241.8,105.1z"/>
				<path class="st0" d="M241.7,102.1c0-0.6,0-1.2-0.1-1.8C241.7,100.9,241.7,101.5,241.7,102.1z"/>
				<path class="st0" d="M241.6,100.3c0-0.8-0.1-1.5-0.1-2.3C241.6,98.8,241.6,99.5,241.6,100.3z"/>
				<path class="st1" d="M244.8,105.1c0,19.1-5.3,37.5-15.3,53.3c0.4-1.5,0.7-3.1,1-4.6c8.4-14.7,12.8-31.4,12.8-48.7
					c0-52.4-40.7-95-90.8-95s-90.8,42.6-90.8,95c0,17.3,4.4,34,12.8,48.7c0.3,1.6,0.7,3.1,1,4.6c-10-15.8-15.3-34.2-15.3-53.3
					c0-53.2,41.4-96.5,92.3-96.5C203.4,8.6,244.8,51.9,244.8,105.1z"/>
				<path class="st0" d="M241.2,94.9c-0.1-0.5-0.1-1.1-0.2-1.6C241.1,93.9,241.2,94.4,241.2,94.9z"/>
				<path class="st0" d="M241,92.7c-0.1-0.5-0.1-1-0.2-1.6C240.9,91.7,240.9,92.2,241,92.7z"/>
				<path class="st0" d="M240.7,90.5c-0.1-0.5-0.1-1-0.2-1.5C240.5,89.5,240.6,90,240.7,90.5z"/>
				<path class="st2" d="M240.4,89c-0.1-0.4-0.1-0.9-0.2-1.3C240.3,88.1,240.4,88.5,240.4,89z"/>
				<path class="st2" d="M240.1,87c-0.1-0.4-0.2-0.8-0.2-1.3C239.9,86.2,240,86.6,240.1,87z"/>
				<path class="st0" d="M239.8,85.8c-0.1-0.5-0.2-1.1-0.3-1.6C239.6,84.7,239.7,85.2,239.8,85.8z"/>
				<path class="st0" d="M239.4,83.8c-0.1-0.6-0.3-1.2-0.4-1.8C239.2,82.7,239.3,83.3,239.4,83.8z"/>
				<path class="st0" d="M238.9,81.6c-0.2-0.6-0.3-1.3-0.5-1.9C238.6,80.3,238.8,80.9,238.9,81.6z"/>
				<path class="st2" d="M238,78.2c-0.1-0.4-0.2-0.8-0.3-1.2C237.8,77.4,237.9,77.8,238,78.2z"/>
				<path class="st0" d="M237.7,77c-0.2-0.6-0.4-1.1-0.5-1.7C237.3,75.9,237.5,76.4,237.7,77z"/>
				<path class="st0" d="M237.1,75.1c-0.2-0.7-0.5-1.4-0.7-2.1C236.6,73.7,236.8,74.4,237.1,75.1z"/>
				<path class="st2" d="M232.1,62.8c-0.2-0.4-0.4-0.7-0.5-1.1C231.8,62.1,231.9,62.4,232.1,62.8z"/>
				<path class="st0" d="M231.6,61.7c-0.2-0.4-0.4-0.7-0.6-1.1C231.2,61,231.4,61.3,231.6,61.7z"/>
				<path class="st0" d="M233.4,124.2c0,8.4-0.7,16.7-2.1,24.7c-0.8,1.5-1.6,2.9-2.4,4.4c0.4-1.8,0.7-3.7,1-5.6
					c0.3,0.2,0.4,0.2,0.4,0.2c-0.1-0.4-0.2-0.7-0.3-1.1c1.2-7.3,1.8-14.9,1.8-22.7c0-5-0.6-9.9-1.6-14.7c0,0,0,0,0,0
					c-0.5-3.7-1.2-7.6-2.1-11.6C231.6,106.1,233.4,115,233.4,124.2z"/>
				<path class="st0" d="M230.5,111.1c1.1,9.5,1,17.4,0.8,22.9c-0.1,2.8-0.4,4.9-0.5,6.4c-0.2,1.5-0.3,2.2-0.3,2.2s0.1-0.8,0.1-2.3
					c0.1-1.5,0.1-3.6,0.1-6.4c0-2.4-0.1-5.1-0.3-8.3c0-0.5,0-1,0-1.5c0-0.5,0-0.9,0-1.4c0-0.4,0-0.8,0-1.2
					c-0.2-5.5-1.1-10.9-2.6-16.1c-0.6-2.9-1.3-5.9-2.2-9c-0.2-0.8-0.5-1.6-0.7-2.4c2.4,4.9,4.2,10,5.4,15.3c0,0,0,0,0,0
					C230.4,110.1,230.4,110.6,230.5,111.1z"/>
				<path class="st0" d="M231.2,134.1c0.3-5.5,0.4-13.5-0.8-22.9c-0.1-0.5-0.1-1.1-0.2-1.6c1.1,4.8,1.6,9.7,1.6,14.7
					c0,7.8-0.6,15.4-1.8,22.7c-0.3-1.2-0.6-2.4-1-3.6c0.8-5.7,1.2-11.5,1.2-17.5c0.2,3.1,0.3,5.9,0.3,8.3c0,2.8,0,4.9-0.1,6.4
					c-0.1,1.5-0.1,2.3-0.1,2.3s0.1-0.8,0.3-2.2C230.9,139,231.1,136.9,231.2,134.1z"/>
				<path class="st1" d="M231.3,149c-0.3,1.6-0.6,3.2-0.9,4.9c-0.8,1.4-1.6,2.8-2.5,4.1c0.4-1.5,0.7-3.1,1-4.6
					C229.8,151.9,230.6,150.5,231.3,149z"/>
				<path class="st0" d="M230.4,122.9c0,0.4,0,0.9,0,1.4c0,0.5,0,1,0,1.5c-0.1-2.2-0.3-4.7-0.6-7.3l0.4,0.6c0.1,0.8,0.1,1.7,0.2,2.6
					C230.4,122.1,230.4,122.4,230.4,122.9z"/>
				<path class="st0" d="M230.1,146.9c0.1,0.4,0.2,0.7,0.3,1.1c0,0-0.1-0.1-0.4-0.2C230.1,147.5,230.1,147.2,230.1,146.9z"/>
				<path class="st0" d="M230.4,122.9c0-0.4,0-0.8,0-1.2C230.4,122.1,230.4,122.4,230.4,122.9z"/>
				<path class="st0" d="M226.4,134.9c0-0.1-0.1-0.8-0.3-1.9c-0.2-1.2-0.4-3-0.8-5.3c-0.1-1.2-0.5-2.4-0.8-3.8
					c-0.3-1.4-0.7-2.8-1-4.4c-0.2-0.8-0.4-1.6-0.7-2.4c0.6-0.4,1.2-0.1,1.5,1.1c0-2-0.3-4.6-0.9-7.8l6.3,8c0.3,2.6,0.5,5,0.6,7.3
					c-0.1,6-0.5,11.8-1.2,17.5C228.3,140.4,227.4,137.6,226.4,134.9L226.4,134.9z"/>
				<path class="st0" d="M230.4,121.6c0-0.9-0.1-1.7-0.2-2.6l-0.4-0.6c-0.2-2.3-0.6-4.6-1-7.1c-0.3-1.9-0.6-3.8-1.1-5.8
					C229.2,110.7,230.1,116.1,230.4,121.6z"/>
				<path class="st2" d="M230.2,59c-0.2-0.4-0.4-0.7-0.6-1.1C229.8,58.3,230,58.7,230.2,59z"/>
				<path class="st0" d="M230.1,146.9c0,0.3-0.1,0.6-0.1,0.9c-0.3-0.2-0.8-0.4-1.4-0.7c0.2-1.2,0.4-2.5,0.6-3.8
					C229.5,144.5,229.8,145.7,230.1,146.9z"/>
				<path class="st1" d="M230.4,153.8c-0.3,1.5-0.7,3.1-1,4.6c-0.1,0.2-0.2,0.3-0.3,0.5l-2.4,3.7c0.4-1.5,0.9-3.1,1.2-4.7
					C228.8,156.6,229.6,155.2,230.4,153.8z"/>
				<path class="st0" d="M229.8,118.5l-6.3-8c-1.4-6.5-4.3-15.1-9.6-24.2c-0.2-2.3-0.5-4.7-0.8-7.1c6.8,7.6,11.8,16.6,14.7,26.4
					c0.4,2,0.8,3.9,1.1,5.8C229.2,113.9,229.5,116.2,229.8,118.5z"/>
				<path class="st0" d="M229.6,57.9c-0.2-0.4-0.4-0.8-0.7-1.2C229.1,57.1,229.4,57.5,229.6,57.9z"/>
				<path class="st1" d="M229.1,158.9c0.1-0.2,0.2-0.3,0.3-0.5c-3.9,16-10.4,30.6-19.4,42.8c-7.5,10.2-16.2,18.1-25.6,23.6l-1.3-1.1
					c20-11.4,35.8-33.6,43.6-61.2L229.1,158.9z"/>
				<path class="st0" d="M230,147.8c-0.3,1.9-0.6,3.7-1,5.6c-0.8,1.3-1.6,2.6-2.4,3.9c0.2-0.9,0.4-1.7,0.6-2.6c0-0.1,0-0.1,0-0.1
					c0.2-0.7,0.3-1.4,0.4-2.1c0-0.2,0.1-0.5,0.1-0.7c0.2-0.8,0.3-1.6,0.5-2.5c0.1-0.7,0.3-1.5,0.4-2.2
					C229.2,147.4,229.7,147.6,230,147.8z"/>
				<path class="st0" d="M229.2,143.3c-0.2,1.3-0.4,2.5-0.6,3.8c0,0,0,0,0,0c0-0.2,0-0.3,0.1-0.5c-0.6-0.5-1.3-1.1-2-1.6
					c0,0-0.1-0.1-0.1-0.1c-1-0.8-2.1-1.7-3.2-2.6c-0.1-0.1-0.2-0.2-0.4-0.3c-1.2-1-2.5-2.1-3.9-3.2c-0.4-0.4-0.9-0.8-1.3-1.1
					c-0.4-0.4-0.9-0.8-1.4-1.2c-0.5-0.4-0.9-0.8-1.4-1.2c-1.9-1.6-3.7-3.2-5.6-4.9c0.6-1.9,1.1-4,1.7-6.1c0.6,1.4,1.1,2.8,1.6,4.3
					c1.2,3.6,4.5-2.9,7.3-7.5c2.4,4.2,4.6,8.9,6.5,14C227.4,137.6,228.3,140.4,229.2,143.3z"/>
				<path class="st0" d="M228.7,56.4c-0.3-0.5-0.6-1.1-0.9-1.6C228.1,55.4,228.4,55.9,228.7,56.4z"/>
				<path class="st1" d="M228.7,146.6c0,0.2,0,0.3-0.1,0.5c-1.3-0.7-3.2-1.7-5.4-3c0,0,0,0,0,0c-4.7-3.8-10.1-8.4-15.3-13
					c0-0.7,0-1.4-0.1-2.1c0.5,0.5,1,0.9,1.6,1.4c1.9,1.7,3.7,3.3,5.6,4.9c0.5,0.4,0.9,0.8,1.4,1.2c0.4,0.4,0.9,0.8,1.4,1.2
					c0.4,0.4,0.9,0.8,1.3,1.1c1.3,1.1,2.6,2.2,3.9,3.2c0.1,0.1,0.2,0.2,0.4,0.3c1.1,0.9,2.2,1.8,3.2,2.6c0.1,0,0.1,0.1,0.1,0.1
					C227.4,145.5,228,146,228.7,146.6z"/>
				<path class="st0" d="M228.6,147C228.6,147.1,228.6,147.1,228.6,147c-0.1,0.8-0.2,1.5-0.4,2.2C228.4,148.5,228.5,147.8,228.6,147
					z"/>
				<path class="st1" d="M228.6,147c-0.1,0.8-0.2,1.5-0.4,2.2c-0.1,0.8-0.3,1.7-0.5,2.5c-0.1,0.2-0.1,0.5-0.1,0.7
					c-0.1,0.7-0.3,1.4-0.4,2.1c0,0.1,0,0.1,0,0.1c-0.2,0.9-0.4,1.8-0.6,2.6v0c-0.4,1.6-0.8,3.1-1.2,4.6l-2.3,3.6l2.1-8.6
					c0.7-3.1,1.4-6.4,1.9-9.8c-1.2-1-2.5-2-3.9-3.1C225.4,145.3,227.3,146.4,228.6,147z"/>
				<path class="st1" d="M229,153.4c-0.3,1.6-0.7,3.1-1,4.6c0,0.1-0.1,0.1-0.1,0.1l-2.5,3.8c0.4-1.5,0.8-3.1,1.2-4.6v0
					C227.4,156,228.2,154.7,229,153.4z"/>
				<path class="st0" d="M227.8,151.8c0.2-0.8,0.3-1.6,0.5-2.5C228.1,150.1,227.9,150.9,227.8,151.8z"/>
				<path class="st0" d="M228.2,97.9c0.9,4,1.6,7.9,2.1,11.6c-1.2-5.3-3-10.5-5.4-15.3c0,0,0,0,0,0c-0.8-2.5-1.6-5.1-2.6-7.7
					C224.6,90.1,226.6,93.9,228.2,97.9z"/>
				<path class="st0" d="M227.7,96c0.2,0.6,0.3,1.3,0.5,1.9c-1.6-4-3.6-7.8-5.9-11.4c-0.7-1.9-1.5-3.9-2.4-5.8
					c-2.4-5.3-5.3-10.6-8.8-15.7c-0.4-0.5-0.8-1.1-1.2-1.6c-0.3-1-0.5-2.1-0.8-3.1c-0.4-1.5-0.9-3.1-1.5-4.5l0,0
					c1.1,1.1,2,2.5,3,3.7c1,1.3,1.9,2.6,2.8,3.9c3.6,5.2,6.5,10.7,8.8,16.2C224.7,85.2,226.4,90.7,227.7,96z"/>
				<path class="st1" d="M227.8,158.1c0-0.1,0.1-0.1,0.1-0.1c-0.4,1.6-0.8,3.1-1.2,4.7l-2.9,4.5c0.5-1.7,1.1-3.4,1.5-5.2
					L227.8,158.1z"/>
				<path class="st0" d="M228.7,146.6c-0.6-0.5-1.3-1.1-2-1.6C227.4,145.5,228,146,228.7,146.6z"/>
				<path class="st0" d="M227.2,154.5c0.2-0.7,0.3-1.4,0.4-2.1C227.5,153.2,227.4,153.8,227.2,154.5z"/>
				<path class="st0" d="M226.6,157.3c0.2-0.9,0.4-1.8,0.6-2.6C227,155.6,226.8,156.4,226.6,157.3z"/>
				<path class="st1" d="M223.8,167.1l2.9-4.5c-7.8,27.6-23.6,49.8-43.6,61.2l-1.2-1C200.6,212.4,215.7,192.3,223.8,167.1z"/>
				<path class="st0" d="M226.4,134.9L226.4,134.9c-1.9-5.1-4.1-9.8-6.5-14c0.7-1.1,1.4-2.2,2-2.9c0.2,0.6,0.4,1.2,0.6,1.8
					c0.5,1.5,0.9,3,1.3,4.3c0.4,1.3,0.8,2.6,1,3.7c0.5,2.3,0.9,4,1.2,5.2C226.2,134.2,226.4,134.8,226.4,134.9z"/>
				<path class="st0" d="M226.4,52.6c-0.3-0.5-0.7-1.1-1.1-1.6C225.7,51.5,226,52.1,226.4,52.6z"/>
				<path class="st3" d="M226.1,133.1c0.2,1.1,0.2,1.7,0.3,1.9c0-0.1-0.2-0.8-0.4-1.8c-0.3-1.2-0.7-3-1.2-5.2
					c-0.2-1.1-0.6-2.4-1-3.7c-0.4-1.3-0.8-2.8-1.3-4.3c-0.2-0.6-0.4-1.2-0.6-1.8c0.4-0.4,0.7-0.8,1-0.9c0.3,0.8,0.5,1.6,0.7,2.4
					c0.4,1.6,0.7,3.1,1,4.4c0.3,1.4,0.6,2.6,0.8,3.8C225.7,130.1,226,131.9,226.1,133.1z"/>
				<path class="st0" d="M225.6,96.6c0.8,3.1,1.6,6.1,2.2,9c-2.8-9.8-7.9-18.7-14.7-26.4c-0.1-0.9-0.2-1.7-0.4-2.6
					c4.9,5.3,9.1,11.2,12.2,17.6c0,0,0,0,0,0C225.1,95,225.4,95.8,225.6,96.6z"/>
				<path class="st1" d="M227.1,147.2c-0.6,3.4-1.2,6.7-1.9,9.8l-2.1,8.6l2.3-3.6c-0.5,1.8-1,3.5-1.5,5.2l-4.3,6.6l4.1-17.1
					c0.7-2.8,1.3-5.8,1.8-8.8c-3-2.4-6.5-5.3-10.2-8.4c2.9,1.8,5.6,3.3,7.9,4.6c0,0,0,0,0,0C224.6,145.1,225.9,146.2,227.1,147.2z"
					/>
				<path class="st0" d="M225.3,51c-0.3-0.5-0.7-1.1-1.1-1.6C224.6,49.9,224.9,50.5,225.3,51z"/>
				<path class="st0" d="M226.5,144.8c-1-0.8-2.1-1.7-3.2-2.6C224.4,143.1,225.5,144,226.5,144.8z"/>
				<path class="st4" d="M225.4,147.8c-0.5,3-1.1,6-1.8,8.8l-4.1,17.1l4.3-6.6c-8.1,25.2-23.2,45.3-41.9,55.7l-0.6-0.5
					c-1.5-1.9-3.3-3.5-5.3-4.6c27.6-21.2,32-59.9,31.9-82.9c2.5,1.6,5,3.2,7.4,4.6C218.9,142.5,222.4,145.4,225.4,147.8z"/>
				<path class="st0" d="M223.9,49c-0.4-0.5-0.8-1.1-1.2-1.6C223.1,47.9,223.5,48.4,223.9,49z"/>
				<path class="st0" d="M224.4,118.2c-0.3-1.2-0.9-1.5-1.5-1.1c0,0,0,0,0,0c-0.3-0.8-0.5-1.7-0.8-2.6c-0.6-1.7-1.1-3.6-1.9-5.4
					c-0.3-0.7-0.6-1.5-0.9-2.3l0.8-0.6l3.3,4.2C224.1,113.6,224.4,116.2,224.4,118.2z"/>
				<path class="st0" d="M223.4,110.5l-3.3-4.2l-0.8,0.6c-0.4-1.2-0.9-2.3-1.5-3.5c-1-1.9-2-4-3-6c-0.2-0.3-0.4-0.6-0.5-0.9
					c0-3.2-0.2-6.6-0.5-10.1C219.1,95.4,222.1,104,223.4,110.5z"/>
				<path class="st3" d="M222.9,117.1C222.9,117.1,222.9,117.1,222.9,117.1c-0.3,0.2-0.6,0.5-1,1c-0.1-0.2-0.2-0.4-0.2-0.6
					c-0.3-0.8-0.6-1.6-0.9-2.5c-0.6-1.7-1.2-3.5-2.1-5.3c-0.3-0.6-0.5-1.2-0.8-1.8l1.5-1.1c0.3,0.8,0.6,1.5,0.9,2.3
					c0.8,1.8,1.3,3.7,1.9,5.4C222.4,115.4,222.6,116.3,222.9,117.1z"/>
				<path class="st0" d="M222.7,47.4c-0.4-0.5-0.8-1-1.2-1.5C221.9,46.3,222.3,46.9,222.7,47.4z"/>
				<path class="st0" d="M222.3,86.5c1,2.6,1.8,5.2,2.6,7.7c-3.2-6.4-7.3-12.3-12.2-17.6c-0.1-0.9-0.3-1.7-0.4-2.6
					C216,77.8,219.4,82,222.3,86.5z"/>
				<path class="st0" d="M221.7,117.5c0.1,0.2,0.1,0.4,0.2,0.6c-0.6,0.7-1.3,1.7-2,2.9c-2-3.6-4.1-6.9-6.3-9.9l4.2-3.1
					c0.3,0.6,0.6,1.2,0.8,1.8c0.9,1.8,1.5,3.6,2.1,5.3C221,115.9,221.4,116.7,221.7,117.5z"/>
				<path class="st0" d="M221.3,45.5c-0.3-0.4-0.6-0.7-0.9-1.1C220.7,44.8,221,45.2,221.3,45.5z"/>
				<path class="st0" d="M222.9,141.9c-1.2-1-2.5-2.1-3.9-3.2C220.4,139.8,221.7,140.9,222.9,141.9z"/>
				<path class="st0" d="M219.9,80.7c0.9,1.9,1.7,3.9,2.4,5.8c-2.9-4.5-6.2-8.7-10.1-12.5c-0.6-3.4-1.4-6.9-2.3-10.6
					c0.4,0.5,0.8,1.1,1.2,1.6C214.6,70.1,217.5,75.3,219.9,80.7z"/>
				<path class="st2" d="M219.6,43.4c-0.4-0.5-0.8-1-1.3-1.5C218.7,42.4,219.2,42.9,219.6,43.4z"/>
				<path class="st3" d="M219.3,106.9l-1.5,1.1c-0.5-1.2-1.1-2.5-1.8-3.8c-0.6-1.1-1.2-2.2-1.8-3.3c0.1-1.5,0.1-3,0.1-4.5
					c0.2,0.3,0.4,0.6,0.5,0.9c1,2.1,2,4.1,3,6C218.4,104.5,218.9,105.7,219.3,106.9z"/>
				<path class="st0" d="M217.7,137.5c0.5,0.4,0.9,0.8,1.3,1.1C218.6,138.3,218.1,137.9,217.7,137.5z"/>
				<path class="st0" d="M217.8,108l-4.2,3.1c0-0.1-0.1-0.1-0.1-0.2c0.4-3.2,0.7-6.5,0.8-10c0.6,1.1,1.2,2.2,1.8,3.3
					C216.7,105.5,217.2,106.7,217.8,108z"/>
				<path class="st1" d="M223.2,144c-2.3-1.3-5-2.9-7.9-4.6c-2.4-2.1-4.9-4.2-7.4-6.4c0-0.7,0-1.4,0-2
					C213.1,135.6,218.5,140.2,223.2,144z"/>
				<path class="st0" d="M214.9,135.2c0.5,0.4,0.9,0.8,1.4,1.2C215.9,136,215.4,135.6,214.9,135.2z"/>
				<path class="st5" d="M172.9,317.9c37.8,1.3,66.2,6.7,66.2,13.1c0,7.4-37.4,13.4-83.4,13.4s-83.5-6-83.5-13.4
					c0-5.7,22.4-10.6,54-12.5l0.5,4.3c-2.9,2.2-4.9,6.1-4.9,10.5c0,1.7,1.3,3,3,3h23.6c1.7,0,3-1.3,3-3h2.2c0,1.7,1.4,3,3,3h23.6
					c1.7,0,3-1.3,3-3c0-6.8-4.7-12.4-10.4-12.4L172.9,317.9z"/>
				<path class="st2" d="M215.5,38.8c-0.5-0.5-1-1-1.4-1.5C214.5,37.8,215,38.3,215.5,38.8z"/>
				<path class="st4" d="M207.9,133c2.5,2.2,5,4.3,7.4,6.4c-2.4-1.4-4.9-3-7.4-4.6C207.9,134.2,207.9,133.6,207.9,133z"/>
				<path class="st0" d="M213.6,111.1c2.2,3,4.3,6.3,6.3,9.9c-2.8,4.6-6.1,11.2-7.3,7.5c-0.5-1.4-1-2.9-1.6-4.3c1-4,1.8-8.3,2.4-13
					L213.6,111.1z"/>
				<path class="st3" d="M214.3,96.4c0,1.5,0,3-0.1,4.5c-0.4-0.8-0.9-1.6-1.3-2.5c-1.2-1.9-2.4-3.9-3.7-5.9
					c-1.4-1.9-2.8-3.9-4.2-5.9c-1.6-1.9-3.1-3.8-4.8-5.7c-0.9-0.9-1.7-1.8-2.6-2.8c-0.9-0.9-1.7-1.9-2.7-2.8
					c-1.9-1.8-3.7-3.6-5.8-5.2l-3-2.5l-3.1-2.4c-2-1.7-4.3-3.1-6.4-4.6c-1.1-0.8-2.2-1.4-3.3-2.1c-1.1-0.7-2.2-1.4-3.3-2
					c-1.7-1-3.4-2-5.2-2.9c3,0.4,6,1,8.9,1.8c0.4,0.2,0.8,0.5,1.1,0.7c1.1,0.7,2.3,1.4,3.4,2.1c2.2,1.5,4.5,3,6.6,4.7l3.2,2.5
					l3.1,2.6c2.1,1.7,3.9,3.6,5.9,5.4c1,0.9,1.9,1.9,2.7,2.8c0.9,1,1.8,1.9,2.6,2.9c1.7,2,3.2,4,4.8,6c1.4,2.1,2.9,4.1,4.2,6.1
					C212.3,92.9,213.3,94.7,214.3,96.4z"/>
				<path class="st0" d="M213.9,86.3c0.3,3.5,0.4,6.8,0.5,10.1c-1-1.7-2-3.4-3.1-5.2c-1.3-2-2.8-4-4.2-6.1c-1.6-2-3.1-4-4.8-6
					c-0.9-1-1.8-1.9-2.6-2.9c-0.9-1-1.8-1.9-2.7-2.8c-1.9-1.8-3.8-3.7-5.9-5.4l-3.1-2.6l-3.2-2.5c-2.1-1.7-4.4-3.1-6.6-4.7
					c-1.1-0.8-2.3-1.4-3.4-2.1c-0.4-0.2-0.8-0.5-1.1-0.7c9.1,2.4,17.5,6.2,24.9,11.2C205.1,73,210.1,79.8,213.9,86.3z"/>
				<path class="st0" d="M212.9,98.4c0.5,0.8,0.9,1.7,1.3,2.5c-0.1,3.5-0.4,6.8-0.8,10c-8-10.9-16.9-18.2-23.5-22.6
					c-12.7-15.5-27.7-27.1-41.6-35.5c1.4-0.1,2.8-0.1,4.1-0.1c4.2,0,8.3,0.3,12.3,0.9c1.7,0.9,3.4,2,5.2,2.9c1.1,0.6,2.2,1.4,3.3,2
					c1.1,0.7,2.2,1.4,3.3,2.1c2.1,1.5,4.4,2.9,6.4,4.6l3.1,2.4l3,2.5c2,1.6,3.9,3.5,5.8,5.2c1,0.9,1.8,1.8,2.7,2.8
					c0.9,0.9,1.8,1.8,2.6,2.8c1.7,1.9,3.2,3.8,4.8,5.7c1.4,2,2.9,4,4.2,5.9C210.5,94.5,211.7,96.5,212.9,98.4z"/>
				<path class="st0" d="M213.6,111.1l-0.2,0.1c0-0.1,0-0.2,0-0.3C213.5,111,213.5,111,213.6,111.1z"/>
				<path class="st0" d="M213.5,110.9c0,0.1,0,0.2,0,0.3l-6.1,4.4c-4.8-10.2-10.8-19.3-17.4-27.4C196.6,92.7,205.4,100,213.5,110.9z
					"/>
				<path class="st0" d="M207.4,115.6l6.1-4.4c-0.6,4.7-1.4,9-2.4,13C209.9,121.3,208.7,118.4,207.4,115.6z"/>
				<path class="st3" d="M213.1,79.2c0.3,2.4,0.6,4.8,0.8,7.1c-3.8-6.5-8.8-13.3-15.2-19.7C204,70.2,208.9,74.5,213.1,79.2z"/>
				<path class="st3" d="M212.7,76.6c0.2,0.9,0.3,1.8,0.4,2.6c-4.2-4.8-9-9-14.4-12.7c-1.7-1.7-3.6-3.4-5.5-5.1
					C200.5,65.5,207.1,70.7,212.7,76.6z"/>
				<path class="st2" d="M214,37.4c-1-1-2-1.9-3-2.8C212,35.4,213,36.4,214,37.4z"/>
				<path class="st3" d="M212.2,74c0.2,0.9,0.3,1.8,0.4,2.6c-5.6-6-12.2-11.1-19.5-15.1c-1.8-1.5-3.6-3-5.6-4.4
					C196.9,61.2,205.3,67,212.2,74z"/>
				<path class="st3" d="M212.2,74c-6.9-7-15.3-12.8-24.6-16.9c-18.4-13.7-45.3-24-83.9-24.1l0-1.8c0.3,0,1-0.1,2.1-0.2
					c1.5-0.1,3.6-0.3,6.4-0.5c5.5-0.4,13.4-0.6,22.8-0.1c9.4,0.5,20.4,1.7,31.7,4.7c5.6,1.5,11.3,3.5,16.9,6.2
					c5.5,2.6,10.8,6,15.4,10c1.2,1,2.3,2.1,3.4,3.1l0.8,0.8c0.2,0.2,0.5,0.6,0.8,0.8l1.6,1.8c0.5,0.6,1,1.2,1.5,1.8l1.4,1.8
					c0.5,0.7,1.1,1.4,1.6,2.1C210.9,67.1,211.6,70.6,212.2,74z"/>
				<path class="st2" d="M211,34.5c-0.5-0.5-1-0.9-1.6-1.4C210,33.6,210.5,34,211,34.5z"/>
				<path class="st3" d="M211,124.2c-0.5,2.1-1.1,4.2-1.7,6.1c-0.5-0.5-1-0.9-1.6-1.4c-0.3-7.9-1-12.9-1-12.9l0.6-0.4
					C208.7,118.4,209.9,121.3,211,124.2z"/>
				<path class="st0" d="M209.1,60.3c0.3,1,0.6,2.1,0.8,3.1c-0.5-0.7-1-1.4-1.6-2.1l-1.4-1.8c-0.5-0.6-0.9-1.2-1.5-1.8l-1.6-1.8
					c-0.2-0.3-0.5-0.6-0.8-0.8l-0.8-0.8c-1.1-1.1-2.1-2.2-3.4-3.1c-4.6-4.1-9.9-7.4-15.4-10c-5.5-2.6-11.2-4.7-16.9-6.2
					c-11.3-3-22.3-4.2-31.7-4.7c-9.4-0.4-17.3-0.2-22.8,0.1c-2.8,0.2-4.9,0.4-6.4,0.5c-1.1,0.1-1.8,0.2-2.1,0.2c-0.1,0-0.2,0-0.2,0
					s0.8-0.1,2.2-0.4c1.5-0.2,3.6-0.6,6.3-0.9c5.5-0.6,13.4-1.4,22.9-1.2c4.8,0,9.9,0.3,15.4,0.9c5.4,0.6,11.1,1.5,16.9,3
					c5.8,1.5,11.7,3.4,17.4,6.1c5.7,2.7,11.2,6.1,16.1,10.4c1.3,1,2.4,2.2,3.5,3.3l0.9,0.9c0.3,0.3,0.5,0.6,0.8,0.9l1.5,1.7
					C208.2,57.3,208.7,58.8,209.1,60.3z"/>
				<path class="st2" d="M209.5,33.2c-0.4-0.4-0.8-0.7-1.2-1C208.7,32.5,209.1,32.8,209.5,33.2z"/>
				<path class="st6" d="M207.9,134.8c0.1,23.1-4.4,61.8-31.9,82.9c-2.7-1.5-5.8-2.4-8.9-2.4h-29.2c-1.2,0-2.3,0.1-3.4,0.3H128
					c-0.8,0-1.5,0.7-1.5,1.5v2.3c-1,0.8-1.9,1.8-2.8,2.9l-0.6,0.5c-18.7-10.4-33.8-30.5-42-55.7l4.3,6.6l-4.1-17.1
					c-1.1-4.4-1.9-9-2.5-13.6c0.4-2.9,1-6.1,1.6-9.1c4.3,3.2,8.8,5.5,13.6,6.8l6.5,1.7l-3-6c-0.6-1.2-1.2-2.4-1.7-3.6
					c3.7,2.6,6.3,3.4,6.3,3.4c-1.3-1.8-2.1-7.1-2.7-13c6.9,3.4,12.8,4.6,13.2,4.6l7,1.4l-4-6c-0.9-1.4-1.8-2.8-2.5-4.3
					c4.8,4.2,8,6,8,6c-1.1-1.5-1.8-4.6-2.2-8c1.6,1.2,3.2,2.4,5,3.6l4.9,3.1l-0.3-5.8c-0.1-2-0.2-4.3-0.3-6.6
					c7,6.2,16.5,11.6,27.3,14.5c1.2,0.7,2.4,1.3,3.6,2l8.1,4.3l-4-8.3c-0.9-1.8-1.6-3.7-2.4-5.6c7.2,5.7,15.1,9.5,24.9,11.9
					c4.9,2.3,9.6,4.1,13.7,5.3l7.8,2.3l-3.7-5.7C205.1,132.9,206.5,133.9,207.9,134.8z M197.2,145c0-4-3.2-7.2-7.1-7.2
					s-7.2,3.2-7.2,7.2c0,3.9,3.2,7.1,7.2,7.1S197.2,148.9,197.2,145z M123.7,145c0-4-3.2-7.2-7.2-7.2c-4,0-7.2,3.2-7.2,7.2
					c0,3.9,3.2,7.1,7.2,7.1C120.5,152.1,123.7,148.9,123.7,145z"/>
				<path class="st4" d="M207.9,133c0,0.6,0,1.2,0,1.8c-1.4-0.9-2.8-1.9-4.2-2.8l-0.7-1.1c-1.1-1.6-2.1-3.4-2.9-5.1
					C202.5,128.2,205.2,130.6,207.9,133z"/>
				<path class="st1" d="M207.9,131c0,0.7,0,1.3,0,2c-2.7-2.4-5.4-4.9-7.9-7.3c0.9,1.7,1.9,3.4,2.9,5.1l0.7,1.1
					c-1.1-0.7-2.1-1.5-3.2-2.2c-2.2-3.7-4.1-7.7-5.4-11.1C198.7,122.5,203.2,126.8,207.9,131z"/>
				<path class="st1" d="M207.8,128.9c0,0.7,0,1.4,0.1,2.1c-4.7-4.2-9.2-8.5-12.8-12.3c1.4,3.4,3.2,7.3,5.4,11.1
					c-1-0.7-2-1.4-2.9-2.2c0,0,0,0,0,0c-0.1-0.1-0.1-0.2-0.2-0.3c-0.2-0.4-0.4-0.8-0.6-1.2c0-0.1,0-0.1-0.1-0.2
					c-0.4-0.9-0.9-1.7-1.3-2.6c-0.2-0.4-0.4-0.9-0.6-1.3h0c-2.7-6.1-4.2-11-4.2-11C193.9,115.8,200.6,122.4,207.8,128.9z"/>
				<path class="st3" d="M94.8,37.5C94.7,37.5,94.7,37.5,94.8,37.5c-0.1,0.1-0.1,0.1-0.2,0.2l-2.1-1.8c15.9-15.1,36.9-24.3,60-24.3
					c2.8,0,5.5,0.1,8.2,0.4c17.3,8,38.7,21.9,46.9,43.8l-1.5-1.7c-0.3-0.3-0.5-0.6-0.8-0.9l-0.9-0.9c-1.2-1.1-2.3-2.3-3.5-3.3
					c-4.9-4.2-10.4-7.7-16.1-10.4c-5.7-2.7-11.6-4.6-17.4-6.1c-5.8-1.5-11.5-2.4-16.9-3c-5.4-0.6-10.6-0.8-15.4-0.9
					c-9.5-0.1-17.4,0.6-22.9,1.2c-2.8,0.3-4.9,0.7-6.3,0.9c-1.5,0.3-2.2,0.4-2.2,0.4s0,0,0.2,0l0,1.8c-0.1,0-0.1,0-0.1,0l-2.7,0
					c0,0,0,0,0,0c0,0,0,0,0,0s0.1,0.4,0.2,1.2l-2.5,0.6c0,0,0,0,0,0c0,0,0,0,0,0c-0.1,0.2-0.7,1.1-1.6,2.8L94.8,37.5z"/>
				<path class="st1" d="M203.7,132l3.7,5.7l-7.8-2.3c-4.1-1.2-8.8-3-13.7-5.3c2.3,0.6,4.6,1.1,7.1,1.5c2.5,1,4.8,1.8,7,2.4l3.9,1.1
					l-2.2-3.4c-0.4-0.6-0.8-1.3-1.2-1.9C201.6,130.5,202.6,131.2,203.7,132z"/>
				<path class="st3" d="M207.4,115.6l-0.6,0.4c0,0,0.7,5,1,12.9c-7.2-6.5-13.9-13.1-17.1-17.9c0,0,1.5,4.9,4.2,11
					c-6.8-2.1-13.7-5.5-20.7-10c-1-0.8-2-1.7-3.1-2.6c-2.7-2.4-5.5-5-8.5-7.7c-2.9-2.7-5.8-5.6-8.8-8.5c-2.9-3-5.9-6-8.8-9
					c-1.6-1.8-3.3-3.5-4.9-5.2l39.8,3.6c0,0,4.1,1.7,10.1,5.7C196.6,96.3,202.5,105.4,207.4,115.6z"/>
				<path class="st2" d="M206.2,30.5c-0.4-0.3-0.7-0.6-1.1-0.8C205.5,29.9,205.9,30.2,206.2,30.5z"/>
				<path class="st1" d="M201.7,131.7l2.2,3.4l-3.9-1.1c-2.2-0.6-4.6-1.5-7-2.4c2.4,0.4,4.8,0.7,7.4,1c0,0,0,0,0,0
					c-0.3-0.4-0.5-0.8-0.8-1.3c-0.3-0.4-0.5-0.9-0.8-1.3c0,0-0.1-0.1-0.1-0.1c-0.2-0.4-0.4-0.8-0.7-1.2c-0.1-0.2-0.2-0.3-0.3-0.5
					c-0.1-0.1-0.2-0.3-0.2-0.5c0.9,0.7,1.9,1.5,2.9,2.2C200.9,130.4,201.3,131,201.7,131.7z"/>
				<path class="st2" d="M203,28c-0.4-0.3-0.9-0.6-1.3-0.9C202.1,27.4,202.6,27.7,203,28z"/>
				<path class="st0" d="M201.7,27.1c-0.3-0.2-0.6-0.4-0.9-0.6C201.1,26.7,201.4,26.9,201.7,27.1z"/>
				<path class="st0" d="M196,128.5c-0.2-0.1-1.9-1.3-4.8-3.3c-0.8-0.5-1.6-1.1-2.5-1.7c-0.4-0.3-0.9-0.6-1.4-1
					c-0.5-0.4-1-0.8-1.5-1.1c-0.1-0.1-0.3-0.2-0.5-0.4c3.1,0.6,6.5,1,9.5,1h0c0.2,0.4,0.4,0.9,0.6,1.3c0.4,0.8,0.8,1.7,1.3,2.6
					c0,0.1,0.1,0.1,0.1,0.2c0.2,0.4,0.4,0.8,0.6,1.2c0.1,0.1,0.1,0.2,0.2,0.3c-1.7-1.3-3.3-2.6-4.8-3.9c0,0,1.2,1.9,7.6,8.8
					c0,0,0,0,0,0c-15.3-4.5-36.2-16.5-46.9-29l0.5,0.4L174,118c0,0,3.5,1.2,8.1,2.3c1,0.7,2,1.4,3,2c0.5,0.4,1.1,0.7,1.6,1
					c0.5,0.3,1,0.6,1.5,0.9c1,0.5,1.9,1,2.7,1.5C193.9,127.3,195.8,128.4,196,128.5z"/>
				<path class="st0" d="M199.6,131.2c0.3,0.4,0.5,0.8,0.8,1.3c-6.5-6.9-7.6-8.8-7.6-8.8c1.5,1.3,3.1,2.6,4.8,3.9c0,0,0,0,0,0
					c0.1,0.2,0.2,0.3,0.2,0.5c0.1,0.2,0.2,0.3,0.3,0.5c0.2,0.4,0.4,0.8,0.7,1.2c0,0,0.1,0.1,0.1,0.1
					C199.1,130.3,199.4,130.8,199.6,131.2z"/>
				<path class="st0" d="M198.8,129.9c0.2,0.4,0.5,0.9,0.8,1.3C199.4,130.8,199.1,130.3,198.8,129.9z"/>
				<path class="st0" d="M198.1,128.6c0.2,0.4,0.4,0.8,0.7,1.2C198.5,129.4,198.3,128.9,198.1,128.6z"/>
				<path class="st0" d="M197.6,127.6c0.1,0.2,0.2,0.3,0.2,0.5C197.7,127.9,197.6,127.7,197.6,127.6z"/>
				<path class="st2" d="M197.6,24.4c-0.5-0.3-1-0.6-1.5-0.9C196.6,23.8,197.1,24.1,197.6,24.4z"/>
				<path class="st0" d="M196.8,126c0.2,0.4,0.4,0.8,0.6,1.2C197.2,126.8,197,126.4,196.8,126z"/>
				<path class="st2" d="M196.1,23.5c-0.6-0.4-1.2-0.7-1.8-1C194.9,22.8,195.5,23.2,196.1,23.5z"/>
				<path class="st0" d="M195.4,123.3c0.4,0.9,0.8,1.7,1.3,2.6C196.2,125,195.8,124.1,195.4,123.3z"/>
				<path class="st1" d="M190.1,137.8c3.9,0,7.1,3.2,7.1,7.2c0,3.9-3.2,7.1-7.1,7.1s-7.2-3.2-7.2-7.1
					C182.9,141,186.1,137.8,190.1,137.8z"/>
				<path class="st0" d="M191.2,125.2c2.9,2,4.6,3.2,4.8,3.3c-0.2-0.1-2-1.1-5.1-2.8c-0.8-0.5-1.7-1-2.7-1.5c-0.5-0.3-1-0.6-1.5-0.9
					c-0.5-0.3-1-0.7-1.6-1c-0.9-0.6-1.9-1.3-3-2c1,0.2,2.1,0.5,3.2,0.7c0.2,0.1,0.3,0.2,0.5,0.4c0.5,0.4,1,0.8,1.5,1.1
					c0.5,0.4,1,0.7,1.4,1C189.6,124.1,190.4,124.6,191.2,125.2z"/>
				<path class="st0" d="M194.8,122c-3.1,0-6.4-0.4-9.5-1c-1.1-0.8-2.2-1.7-3.3-2.6C186.1,119.9,190.5,121.2,194.8,122z"/>
				<path class="st1" d="M200.4,132.5c-2.6-0.3-5.1-0.6-7.4-1c-12.1-4.8-26.6-13.2-36.6-22.8c0.6,2.2,1.4,4.8,2.3,7.5
					c-0.8-0.7-1.5-1.3-2.3-2.1c-0.1-0.2-0.1-0.3-0.2-0.5c-0.1-0.3-0.2-0.6-0.3-1c-1.6-5.2-2.4-9.2-2.4-9.2
					C164.3,116,185.1,128,200.4,132.5z"/>
				<path class="st0" d="M193.1,61.5c1.9,1.7,3.8,3.4,5.5,5.1c-7.4-5-15.8-8.9-24.9-11.2c-0.8-0.5-1.5-0.9-2.3-1.4
					c-0.7-0.4-1.4-0.8-2.1-1.2C177.9,54.5,185.9,57.5,193.1,61.5z"/>
				<path class="st2" d="M191.9,21.2c-0.4-0.2-0.8-0.4-1.2-0.6C191.2,20.8,191.6,21,191.9,21.2z"/>
				<path class="st1" d="M188.6,228.3c0.8,0.7,1.2,1.7,1.1,2.8l-4.6,31.7v27.9c0,1.7-1.3,3-3,3h-59.2c-1.7,0-3-1.3-3-3v-27.8
					l-4.6-31.8c-0.2-1,0.3-2.1,1.1-2.8l4.2-3.5c0.5,0.3,0.9,0.5,1.4,0.8l-4.7,3.8c-0.4,0.3-0.6,0.9-0.5,1.4l4.6,31.9v27.9
					c0,0.8,0.7,1.5,1.5,1.5h59.2c0.8,0,1.5-0.7,1.5-1.5v-28l4.6-31.8c0.1-0.5-0.1-1-0.5-1.4l-4.7-3.8c0.5-0.3,0.9-0.5,1.4-0.8
					L188.6,228.3z"/>
				<path class="st0" d="M187.6,57c1.9,1.4,3.8,2.9,5.6,4.4c-7.2-4-15.2-7-23.7-8.6c-1.4-0.8-2.8-1.6-4.2-2.2
					C173.1,51.7,180.6,53.9,187.6,57z"/>
				<path class="st1" d="M187.7,229.5c0.4,0.3,0.6,0.8,0.5,1.4l-4.6,31.8v28c0,0.8-0.7,1.5-1.5,1.5h-59.2c-0.8,0-1.5-0.7-1.5-1.5
					v-27.9l-4.6-31.9c-0.1-0.5,0.1-1,0.5-1.4l4.7-3.8c0.5,0.3,0.9,0.5,1.4,0.8l-5.2,4.2l4.7,32v18.1v3.6v6.3c13.8,0,48.6,0,59.2,0
					v-28.1l4.6-31.9l-5.2-4.2c0.5-0.2,1-0.5,1.4-0.8L187.7,229.5z"/>
				<path class="st1" d="M193,131.5c-2.5-0.4-4.9-0.9-7.1-1.5c-9-4.2-18.7-10.1-26.5-16.7c0.5,1.6,1,3.2,1.6,4.8
					c-0.8-0.6-1.5-1.2-2.3-1.9c-0.9-2.7-1.7-5.3-2.3-7.5C166.4,118.3,180.9,126.7,193,131.5z"/>
				<path class="st2" d="M188.8,19.7c-1.2-0.6-2.5-1.1-3.7-1.6C186.3,18.5,187.6,19.1,188.8,19.7z"/>
				<path class="st7" d="M128,228.6c7.8,3.3,16.1,5.1,24.5,5.1c10.1,0,19.9-2.5,29.1-7.2l5.2,4.2l-4.6,31.9v28.1
					c-10.6,0-45.4,0-59.2,0v-6.3v-3.6v-18.1l-4.7-32l5.2-4.2c1,0.5,2,1,3,1.5C127,228.1,127.5,228.4,128,228.6z"/>
				<path class="st1" d="M184.4,224.9c-0.5,0.3-0.9,0.5-1.4,0.8l-1.3-1.1c0.5-0.2,0.9-0.5,1.4-0.8L184.4,224.9z"/>
				<path class="st0" d="M194.8,122c-4.3-0.8-8.7-2.1-12.9-3.6c-1-0.7-2-1.5-3.1-2.3c-1.5-1.3-3.1-2.6-4.7-4
					C181.1,116.4,188.1,119.9,194.8,122z"/>
				<path class="st1" d="M181.9,222.8l1.2,1c-0.5,0.3-0.9,0.5-1.4,0.8l-1.2-1C180.9,223.3,181.4,223.1,181.9,222.8z"/>
				<path class="st1" d="M181.7,224.6l1.3,1.1c-0.5,0.3-0.9,0.5-1.4,0.8l-1.3-1.1C180.7,225.1,181.2,224.9,181.7,224.6z"/>
				<path class="st0" d="M182,118.4c1.2,0.9,2.3,1.8,3.3,2.6c-1.1-0.2-2.2-0.4-3.2-0.7c-1.4-0.9-2.8-1.8-4.3-2.9
					c-0.6-0.5-1.3-1-2-1.5C177.9,116.8,179.9,117.6,182,118.4z"/>
				<path class="st1" d="M183.2,333.3c0,1.7-1.3,3-3,3h-23.6c-1.6,0-3-1.3-3-3c0-6.8,4.7-12.4,10.4-12.4h8.8
					C178.5,320.9,183.2,326.5,183.2,333.3z M180.2,334.8c0.8,0,1.5-0.7,1.5-1.5c0-6-4-10.9-8.9-10.9H164c-4.9,0-8.9,4.9-8.9,10.9
					c0,0.8,0.7,1.5,1.5,1.5H180.2z"/>
				<path class="st4" d="M181.3,222.4l0.6,0.5c-0.5,0.3-0.9,0.5-1.4,0.8l-0.2-0.2c-1.5-2-3.4-3.6-5.6-4.7c0.4-0.3,0.9-0.6,1.3-1
					C178,218.9,179.9,220.5,181.3,222.4z"/>
				<path class="st1" d="M180.5,223.6l1.2,1c-0.5,0.3-1,0.5-1.5,0.8l-1.1-0.9c0-0.1-0.1-0.1-0.1-0.1
					C179.5,224.1,180,223.8,180.5,223.6z"/>
				<path class="st1" d="M180.2,225.4l1.3,1.1c-9.1,4.7-18.9,7.2-29.1,7.2c-8.5,0-16.7-1.7-24.5-5.1v-1.7c7.7,3.4,16,5.3,24.5,5.3
					C162.2,232.1,171.6,229.8,180.2,225.4z"/>
				<path class="st4" d="M159.4,113.3c7.8,6.6,17.5,12.5,26.5,16.7c-9.7-2.4-17.7-6.3-24.9-11.9
					C160.4,116.5,159.8,114.9,159.4,113.3z"/>
				<path class="st1" d="M181.7,333.3c0,0.8-0.7,1.5-1.5,1.5h-23.6c-0.8,0-1.5-0.7-1.5-1.5c0-6,4-10.9,8.9-10.9h8.8
					C177.7,322.4,181.7,327.3,181.7,333.3z M177.1,333.3h3.1c0-5.2-3.3-9.4-7.4-9.4h-2.1H164c-4.1,0-7.4,4.2-7.4,9.4h3.2h14.9H177.1
					z"/>
				<path class="st4" d="M180.2,223.4l0.2,0.2c-0.5,0.2-1,0.5-1.4,0.7c-1.5-2-3.4-3.6-5.7-4.6c0.5-0.3,0.9-0.7,1.4-1
					C176.8,219.9,178.8,221.4,180.2,223.4z"/>
				<path class="st1" d="M179.1,224.5l1.1,0.9c-8.6,4.4-18,6.8-27.7,6.8c-8.6,0-16.8-1.8-24.5-5.3v-1.6c6.4,2.9,13.1,4.7,20.1,5.2
					c0,0,0,0,0,0c0.1,0,0.2,0,0.4,0c0.8,0.1,1.6,0.1,2.4,0.1c0.6,0,1.1,0,1.7,0c9.3,0,18.2-2.2,26.5-6.3
					C179.1,224.4,179.1,224.4,179.1,224.5z"/>
				<path class="st8" d="M180.2,333.3h-3.1h-2.4c1.1-1.9,1.2-4,0.6-5.7c-0.5-1.6-1.9-3.1-4.6-3.7h2.1
					C176.9,323.9,180.2,328.1,180.2,333.3z"/>
				<path class="st3" d="M190,88.3c-5.9-4-10.1-5.7-10.1-5.7L140.1,79c-1.2-1.3-2.5-2.7-3.7-4c-1.4-1.5-2.8-3.1-4.2-4.6
					c-1.4-1.5-2.7-3-4-4.5c-2.3-2.5-4.4-5-6.5-7.5c8.2-3.2,17.2-5.2,26.5-5.7C162.3,61.2,177.3,72.8,190,88.3z"/>
				<path class="st0" d="M178.9,116c1.1,0.8,2.1,1.6,3.1,2.3c-2.1-0.8-4.1-1.6-6.1-2.4c-2-1.5-4.1-3.1-6.3-4.8
					c-2.9-2.3-5.8-4.8-8.8-7.4c-3-2.7-6-5.5-9-8.4c-2.9-3-6-6-8.9-9c9.9,9.7,20.6,18.9,31.3,25.7C175.8,113.4,177.4,114.8,178.9,116
					z"/>
				<path class="st2" d="M185,18c-2.4-1-4.9-1.9-7.4-2.7C180.1,16.1,182.6,17,185,18z"/>
				<path class="st0" d="M177.9,117.4c1.5,1,2.9,2,4.3,2.9c-4.6-1.1-8.1-2.3-8.1-2.3l-19.9-14.1c2.2,1.5,10.9,7.3,21.8,12.1
					C176.6,116.4,177.2,116.9,177.9,117.4z"/>
				<path class="st6" d="M167.1,215.4c3.2,0,6.2,0.8,8.9,2.4c-0.4,0.3-0.9,0.7-1.3,1c-2.3-1.2-4.9-1.9-7.6-1.9h-26
					c-0.2-0.7-0.8-1.2-1.5-1.2h-5.1c1.1-0.2,2.3-0.3,3.4-0.3H167.1z"/>
				<path class="st9" d="M175.3,327.6c0.6,1.8,0.5,3.9-0.6,5.7h-14.9h-3.2c0-5.2,3.3-9.4,7.4-9.4h6.7
					C173.4,324.5,174.8,326.1,175.3,327.6z"/>
				<path class="st2" d="M175.1,14.6c-0.5-0.1-1-0.3-1.5-0.4C174.1,14.4,174.6,14.5,175.1,14.6z"/>
				<path class="st4" d="M173.3,219.7c2.3,1,4.2,2.6,5.7,4.6c-8.3,4.1-17.2,6.3-26.5,6.3c-0.6,0-1.1,0-1.7,0c-0.8,0-1.6-0.1-2.4-0.1
					c-0.1,0-0.2,0-0.3,0C158,228.3,166.4,224.5,173.3,219.7z"/>
				<path class="st6" d="M141.1,216.9h26c2.7,0,5.3,0.7,7.6,1.9c-0.4,0.3-0.9,0.7-1.4,1c-1.9-0.9-4-1.4-6.2-1.4h-29.2
					c-3.8,0-7.3,1.4-10,3.8v-1.9c2-1.5,4.2-2.5,6.6-3c1.1-0.2,2.2-0.3,3.3-0.3H141.1z"/>
				<path class="st0" d="M171.1,109.4c1.1,0.9,2.1,1.7,3.1,2.6c-10.7-6.8-21.4-16-31.3-25.7c0,0,0,0-0.1-0.1c-2.3-2.6-4.8-5.1-7-7.6
					l4.3,0.4c1.6,1.7,3.3,3.5,4.9,5.2c2.9,3.1,5.9,6.1,8.8,9c3,2.9,5.9,5.8,8.8,8.5C165.6,104.4,168.4,107,171.1,109.4z"/>
				<path class="st2" d="M173,14.1c-0.5-0.1-0.9-0.2-1.4-0.3C172.1,13.9,172.6,14,173,14.1z"/>
				<path class="st5" d="M172.9,317.9l-0.1,3H164c-5.7,0-10.4,5.6-10.4,12.4h-2.2c0-6.8-4.6-12.4-10.4-12.4h-8.8l-0.1-2.7
					c7.5-0.4,15.4-0.5,23.6-0.5C161.6,317.7,167.3,317.8,172.9,317.9z"/>
				<path class="st3" d="M171.4,54c0.8,0.4,1.5,0.9,2.3,1.4c-2.9-0.8-5.9-1.3-8.9-1.8c-0.5-0.3-1-0.6-1.6-0.8
					c-0.7-0.4-1.5-0.8-2.2-1.1c2.8,0.3,5.6,0.7,8.3,1.2C170.1,53.2,170.8,53.6,171.4,54z"/>
				<path class="st0" d="M169.6,111.2c2.2,1.7,4.3,3.3,6.3,4.8c-10.9-4.8-19.6-10.6-21.8-12.1l-0.5-0.4c0,0-11.9-10.2-24.7-25.5
					l6.4,0.6c2.4,2.6,4.9,5.1,7.5,7.7c0,0,0.1,0.1,0.1,0.1c2.9,3.1,6,6.1,8.9,9c3,2.9,6.1,5.7,9,8.4
					C163.9,106.3,166.8,108.8,169.6,111.2z"/>
				<path class="st2" d="M170.9,13.6c-0.4-0.1-0.8-0.2-1.2-0.2C170.1,13.4,170.5,13.5,170.9,13.6z"/>
				<path class="st2" d="M168.8,13.2c-0.4-0.1-0.8-0.2-1.2-0.2C168,13,168.4,13.1,168.8,13.2z"/>
				<path class="st6" d="M167.1,218.4c2.2,0,4.3,0.5,6.2,1.4c-7,4.8-15.3,8.5-25.2,10.8c-7-0.5-13.7-2.3-20.1-5.2v-3.1
					c2.7-2.4,6.1-3.8,10-3.8H167.1z"/>
				<path class="st0" d="M167.6,12.9c-0.3-0.1-0.7-0.1-1-0.2C166.9,12.8,167.2,12.9,167.6,12.9z"/>
				<path class="st1" d="M163.4,123.7l4,8.3l-8.1-4.3c-1.2-0.7-2.4-1.3-3.6-2c1.7,0.5,3.5,0.8,5.3,1.2l3.1,1.6l-2-4.1
					c-1.2-2.5-2.3-5.4-3.3-8.1c0.8,0.7,1.5,1.3,2.3,1.9C161.7,120,162.5,121.9,163.4,123.7z"/>
				<path class="st0" d="M187.6,57c-7-3.1-14.5-5.3-22.4-6.5c-0.2-0.1-0.4-0.2-0.6-0.3c-1.1-0.6-2.3-1.2-3.4-1.7
					c-1.2-0.5-2.3-1.1-3.4-1.6c-1.1-0.5-2.3-1-3.4-1.5c-1.1-0.5-2.3-0.9-3.4-1.4c-2.3-0.8-4.5-1.7-6.7-2.4
					c-4.3-1.5-8.5-2.7-12.4-3.7c-1.9-0.5-3.8-1-5.6-1.4c-1.8-0.4-3.5-0.7-5.1-1c-3.2-0.6-6-1-8.3-1.4c-2.3-0.3-4.1-0.5-5.4-0.6
					c-1.1-0.1-1.8-0.1-1.9-0.1c0,0,0,0,0,0c-1.3-0.4-2.1-0.6-2.1-0.6c0,0,0.1,0,0.1,0C142.3,33,169.2,43.4,187.6,57z"/>
				<path class="st2" d="M166.6,12.8c-0.4-0.1-0.9-0.1-1.3-0.2C165.7,12.6,166.1,12.7,166.6,12.8z"/>
				<path class="st3" d="M165.2,50.6c1.4,0.7,2.8,1.5,4.2,2.2c-2.7-0.5-5.5-1-8.3-1.2c-0.4-0.2-0.8-0.4-1.2-0.6
					c-0.8-0.4-1.6-0.8-2.5-1.2C160.1,50,162.6,50.2,165.2,50.6z"/>
				<path class="st3" d="M164.5,50.3c0.2,0.1,0.4,0.2,0.6,0.3c-2.5-0.4-5.1-0.6-7.8-0.8c-0.3-0.2-0.6-0.3-0.9-0.4
					c-2.2-1.1-4.5-2-6.6-3c-2.2-0.9-4.3-1.8-6.5-2.6c-2.1-0.8-4.2-1.5-6.2-2.2c-2-0.7-4-1.3-5.9-1.9c-3.8-1.1-7.3-2.1-10.4-2.9
					c-3.1-0.8-5.9-1.4-8.1-1.9c-2.3-0.4-4.1-0.8-5.3-1c-1-0.2-1.7-0.3-1.8-0.3c0,0,0,0,0,0c0.1,0,0.8,0,1.9,0.1
					c1.2,0.1,3.1,0.3,5.4,0.6c2.3,0.3,5.1,0.7,8.3,1.4c1.6,0.3,3.3,0.7,5.1,1c1.8,0.4,3.6,0.9,5.6,1.4c3.9,1,8.1,2.2,12.4,3.7
					c2.2,0.7,4.4,1.6,6.7,2.4c1.1,0.5,2.2,0.9,3.4,1.4c1.1,0.5,2.3,1,3.4,1.5c1.1,0.5,2.3,1,3.4,1.6
					C162.2,49.1,163.4,49.7,164.5,50.3z"/>
				<path class="st0" d="M163.3,52.7c0.5,0.3,1,0.5,1.6,0.8c-4-0.6-8.1-0.9-12.3-0.9c-1.4,0-2.8,0-4.1,0.1c-0.8-0.5-1.5-0.9-2.3-1.4
					c2.1-0.2,4.3-0.2,6.4-0.2c2.9,0,5.8,0.1,8.6,0.4C161.8,52,162.5,52.4,163.3,52.7z"/>
				<path class="st2" d="M164.7,12.5c-0.6-0.1-1.3-0.2-1.9-0.2C163.4,12.3,164.1,12.4,164.7,12.5z"/>
				<path class="st1" d="M162,124.3l2,4.1l-3.1-1.6c0.3,0,0.5,0.1,0.8,0.1c-0.5-0.7-0.9-1.4-1.3-2.1c0.1,0,0.2,0.1,0.2,0.1
					c-0.1-0.1-0.1-0.2-0.2-0.4c-0.2-0.4-0.4-0.7-0.5-1.1c-0.2-0.4-0.3-0.8-0.5-1.1c-0.6-1.3-1.1-2.6-1.5-3.9
					c-0.1-0.4-0.3-0.8-0.4-1.2c-0.3-0.8-0.5-1.5-0.8-2.2c-0.1-0.3-0.2-0.6-0.3-0.9c0.8,0.7,1.5,1.4,2.3,2.1
					C159.7,119,160.8,121.8,162,124.3z"/>
				<path class="st2" d="M162.8,12.2c-0.7-0.1-1.4-0.2-2.1-0.2C161.4,12.1,162.1,12.1,162.8,12.2z"/>
				<path class="st1" d="M161.7,127c-0.3,0-0.5-0.1-0.8-0.1l-1-0.5c-14.4-7.6-24.9-15.1-33.5-23.8c0.1,2,0.2,4.6,0.3,7.3
					c-0.5-0.5-1.1-1-1.6-1.5c-0.2-5.1-0.4-9.4-0.4-9.7c0.9,1,1.8,2,2.8,2.9c8.8,9,19.3,16.2,32.8,23.4
					C160.8,125.5,161.3,126.2,161.7,127z"/>
				<path class="st0" d="M159.9,51c0.4,0.2,0.8,0.4,1.2,0.6c-2.8-0.3-5.7-0.4-8.6-0.4c-2.2,0-4.3,0.1-6.4,0.2
					c-0.8-0.5-1.5-0.9-2.3-1.3c2.9-0.3,5.8-0.4,8.7-0.4c1.6,0,3.3,0.1,4.9,0.2C158.2,50.2,159.1,50.6,159.9,51z"/>
				<path class="st1" d="M160,126.3l1,0.5c-1.8-0.3-3.6-0.7-5.3-1.2c-11.3-6.2-20.1-12.5-27.5-19.5c0.1,1.6,0.1,3.3,0.2,5
					c-0.5-0.5-1.1-1-1.6-1.4c-0.1-2.7-0.2-5.3-0.3-7.3C135.1,111.3,145.6,118.7,160,126.3z"/>
				<path class="st0" d="M160.5,124.6c0,0.1,0.1,0.2,0.2,0.4c-0.1,0-0.2-0.1-0.2-0.1c-0.9-1.4-1.6-2.7-2.3-3.9
					c-2.2-3.8-3.6-6.3-4.4-8.1c0.5,0,0.9,0,1.4-0.1c0.4,0.5,0.9,0.9,1.3,1.3c0,0,0,0,0,0c0.1,0.3,0.2,0.6,0.3,0.9
					c0.2,0.7,0.5,1.5,0.8,2.2c0.1,0.4,0.3,0.8,0.4,1.2c0.5,1.3,1,2.6,1.5,3.9c0.2,0.4,0.3,0.8,0.5,1.1
					C160.1,123.9,160.3,124.3,160.5,124.6z"/>
				<path class="st0" d="M160,123.5c0.2,0.4,0.3,0.8,0.5,1.1C160.3,124.3,160.1,123.9,160,123.5z"/>
				<path class="st0" d="M159.5,122.4c0.2,0.4,0.3,0.8,0.5,1.1C159.8,123.1,159.6,122.8,159.5,122.4z"/>
				<path class="st3" d="M158.1,121c0.7,1.2,1.4,2.5,2.3,3.9c-13.5-7.2-24-14.4-32.8-23.4c-1-1-1.9-1.9-2.8-2.9
					c0.7,0.6,8,6.3,16,10.4c1,0.9,1.9,1.8,2.9,2.6c1,0.8,1.8,1.7,2.8,2.4c0.9,0.7,1.8,1.4,2.6,2c1.6,1.2,3.1,2.2,4.3,3.1
					c2.3,1.4,3.8,2.3,3.9,2.4c0,0,0,0,0,0L158.1,121z"/>
				<path class="st3" d="M158.1,121l-0.9,0.5c0,0,0,0,0,0c-0.2-0.2-1.5-1.2-3.6-2.9c-1.1-1-2.4-2.1-3.9-3.5c-1.3-1.2-2.7-2.5-4.1-4
					c2.9,1.1,5.6,1.8,8.1,1.8C154.6,114.6,155.9,117.2,158.1,121z"/>
				<path class="st0" d="M157.5,117.3c0.1,0.4,0.3,0.8,0.4,1.2C157.8,118.1,157.6,117.7,157.5,117.3z"/>
				<path class="st0" d="M156.5,49.4c0.3,0.1,0.6,0.3,0.9,0.4c-1.6-0.1-3.3-0.2-4.9-0.2c-2.9,0-5.8,0.2-8.7,0.4
					c-17.6-10-32.8-15-38.2-16.5c0.2,0,0.8,0.1,1.8,0.3c1.2,0.2,3,0.6,5.3,1c2.3,0.5,5,1.1,8.1,1.9c3.1,0.8,6.6,1.8,10.4,2.9
					c1.9,0.6,3.9,1.2,5.9,1.9c2,0.7,4.1,1.4,6.2,2.2c2.1,0.8,4.3,1.7,6.5,2.6C152.1,47.4,154.3,48.3,156.5,49.4z"/>
				<path class="st3" d="M153.7,118.6c2.1,1.7,3.4,2.7,3.6,2.9c-0.2-0.1-1.6-1-3.9-2.4c-1.2-0.8-2.7-1.8-4.3-3.1
					c-0.8-0.6-1.7-1.3-2.6-2c-0.9-0.7-1.8-1.5-2.8-2.4c-0.9-0.8-1.9-1.7-2.9-2.6c1.6,0.8,3.2,1.5,4.8,2.1c1.5,1.5,2.9,2.8,4.1,4
					C151.2,116.5,152.6,117.6,153.7,118.6z"/>
				<path class="st2" d="M156.5,114.2c0.1,0.3,0.2,0.6,0.3,0.9C156.6,114.7,156.6,114.4,156.5,114.2z"/>
				<path class="st2" d="M156.3,113.7c0.1,0.2,0.1,0.3,0.2,0.5c0,0,0,0,0,0C156.4,114,156.4,113.8,156.3,113.7z"/>
				<path class="st0" d="M156.3,113.7c0.1,0.2,0.1,0.3,0.2,0.5c-0.4-0.4-0.9-0.9-1.3-1.3c0.3,0,0.6-0.1,0.9-0.2
					C156.1,113,156.2,113.3,156.3,113.7z"/>
				<path class="st3" d="M152.5,110.2c0,0.1,0.3,0.9,1.2,2.8c-2.5,0-5.2-0.7-8.1-1.8c-0.3-0.2-0.5-0.5-0.8-0.8
					c-0.9-0.9-1.8-1.8-2.7-2.8c-0.9-1-1.8-2-2.8-3.1c-0.9-1.1-1.9-2.2-2.8-3.4c-0.9-1.2-1.9-2.3-2.8-3.6c-0.9-1.2-1.9-2.5-2.8-3.8
					c-0.9-1.3-1.8-2.6-2.8-4c-1.8-2.7-3.6-5.5-5.3-8.4c-0.8-1.3-1.6-2.7-2.4-4.1l8.3,0.8c12.7,15.3,24.7,25.5,24.7,25.5
					s0.9,4.1,2.4,9.2c-0.3,0.1-0.6,0.1-0.9,0.2C154.2,112,153.4,111.1,152.5,110.2z"/>
				<path class="st3" d="M155.1,112.8c-0.4,0.1-0.9,0.1-1.4,0.1c-0.9-1.9-1.2-2.7-1.2-2.8C153.4,111.1,154.2,112,155.1,112.8z"/>
				<path class="st4" d="M150.8,230.6c0.6,0,1.1,0,1.7,0C151.9,230.6,151.4,230.6,150.8,230.6z"/>
				<path class="st1" d="M126.7,322.8c1.6-1.2,3.5-1.9,5.5-1.9h8.8c5.7,0,10.4,5.6,10.4,12.4c0,1.7-1.3,3-3,3h-23.6
					c-1.7,0-3-1.3-3-3C121.8,328.9,123.7,325,126.7,322.8z M126.9,324.6c-2.2,2-3.6,5.2-3.6,8.8c0,0.8,0.7,1.5,1.5,1.5h23.6
					c0.8,0,1.5-0.7,1.5-1.5c0-6-4-10.9-8.9-10.9h-8.8C130.2,322.4,128.4,323.2,126.9,324.6z"/>
				<path class="st1" d="M127.1,326.5c-1.4,1.7-2.3,4.1-2.3,6.8h3.1h15h2.3h3.1c0-5.2-3.3-9.4-7.4-9.4h-2.1h-6.7
					C130.2,323.9,128.4,324.9,127.1,326.5z M126.9,324.6c1.5-1.4,3.3-2.1,5.3-2.1h8.8c4.9,0,8.9,4.9,8.9,10.9c0,0.8-0.7,1.5-1.5,1.5
					h-23.6c-0.8,0-1.5-0.7-1.5-1.5C123.3,329.7,124.7,326.5,126.9,324.6z"/>
				<path class="st4" d="M148.4,230.5c-0.1,0-0.2,0-0.4,0c0,0,0,0,0,0C148.2,230.5,148.3,230.5,148.4,230.5z"/>
				<path class="st8" d="M148.4,333.3h-3.1h-2.3c1.1-1.9,1.2-4,0.6-5.7c-0.5-1.6-1.9-3.1-4.6-3.7h2.1
					C145.1,323.9,148.4,328.1,148.4,333.3z"/>
				<path class="st3" d="M146.1,51.4c0.8,0.4,1.5,0.9,2.3,1.4c-9.4,0.5-18.3,2.4-26.5,5.7c-0.3-0.4-0.7-0.8-1-1.2
					C128.6,54.1,137.2,52.1,146.1,51.4z"/>
				<path class="st3" d="M144.9,110.4c0.2,0.3,0.5,0.5,0.8,0.8c-1.6-0.6-3.2-1.3-4.8-2.1c0,0,0,0,0,0c-1-0.9-2-1.9-3-3
					c-2-2.1-4.1-4.4-6-6.8c-1-1.2-2-2.5-3-3.8c-0.5-0.6-1-1.3-1.5-2c-0.5-0.7-0.9-1.3-1.4-2c-1.9-2.7-3.7-5.6-5.5-8.5
					c-0.9-1.4-1.7-2.9-2.5-4.4l2.5-1.2l0.2,0c0.8,1.3,1.6,2.7,2.4,4.1c1.7,2.9,3.5,5.7,5.3,8.4c0.9,1.4,1.8,2.7,2.8,4
					c0.9,1.3,1.9,2.6,2.8,3.8c0.9,1.2,1.9,2.4,2.8,3.6c0.9,1.2,1.9,2.3,2.8,3.4c0.9,1.1,1.9,2.1,2.8,3.1
					C143.1,108.5,144,109.5,144.9,110.4z"/>
				<path class="st3" d="M143.8,50.1c0.8,0.4,1.5,0.8,2.3,1.3c-8.9,0.7-17.4,2.7-25.3,5.8l0,0c-0.3-0.4-0.7-0.8-1-1.2
					C127.2,53,135.3,50.9,143.8,50.1z"/>
				<path class="st4" d="M128.1,106.2c7.4,7,16.2,13.2,27.5,19.5c-10.8-2.8-20.2-8.3-27.3-14.5C128.2,109.5,128.2,107.8,128.1,106.2
					z"/>
				<path class="st9" d="M143.5,327.6c0.6,1.8,0.5,3.9-0.6,5.7h-15l-0.8-6.8c1.3-1.6,3.1-2.6,5-2.6h6.7
					C141.6,324.5,143,326.1,143.5,327.6z"/>
				<path class="st6" d="M141.1,216.9h-3.2c-1.1,0-2.3,0.1-3.3,0.3H130c1.4-0.7,2.9-1.2,4.5-1.5h5.1
					C140.3,215.7,140.9,216.2,141.1,216.9z"/>
				<path class="st3" d="M124.8,98.5c0,0.3,0.2,4.6,0.4,9.7c-2.9-2.9-5.2-5.9-6.9-8.8c0,0-0.1,3.5,0.1,8
					c-6.9-3.7-13.2-11.4-13.2-11.4c-0.4,4.9,0.5,11.3,2.6,17.7c-2.9-3.2-6.1-7.1-9.3-11.9c0,0,0,3.7,0.2,8.6
					c-0.4-0.6-0.9-1.2-1.2-1.9c-0.6-1-1.2-2.1-1.8-3.2c-0.5-1.1-1.1-2.3-1.7-3.5c-0.5-1.2-1-2.5-1.5-3.8c-0.4-1.3-0.9-2.6-1.2-4
					l3.6-4l23-11.6c0.8,1.4,1.6,2.9,2.5,4.4c1.8,2.9,3.6,5.7,5.5,8.5c0.5,0.7,0.9,1.4,1.4,2c0.5,0.7,1,1.3,1.5,2c1,1.3,2,2.6,3,3.8
					c2,2.5,4,4.8,6,6.8c1,1.1,2,2.1,3,3c0,0,0,0,0,0C132.8,104.9,125.5,99.1,124.8,98.5C124.8,98.6,124.8,98.6,124.8,98.5z"/>
				<path class="st0" d="M140.1,79l-4.3-0.4c-0.5-0.6-1-1.1-1.5-1.7c-2.8-3.1-5.5-6.3-8-9.3c-2.4-2.8-4.6-5.6-6.7-8.2
					c0.7-0.3,1.5-0.6,2.2-0.9c2.1,2.4,4.2,4.9,6.5,7.5c1.3,1.5,2.6,3,4,4.5c1.4,1.5,2.8,3,4.2,4.6C137.6,76.3,138.9,77.7,140.1,79z"
					/>
				<path class="st2" d="M135.8,78.6c2.3,2.6,4.7,5.1,7,7.6c-2.6-2.5-5.1-5.1-7.5-7.7L135.8,78.6z"/>
				<path class="st2" d="M135.8,78.6l-0.5,0c-6-6.3-11.6-12.8-16.7-18.8c0.3-0.1,0.7-0.3,1-0.4c2.1,2.7,4.3,5.5,6.7,8.2
					c2.5,3.1,5.2,6.2,8,9.3C134.8,77.5,135.3,78.1,135.8,78.6z"/>
				<path class="st0" d="M135.3,78.6l-6.4-0.6c-4.3-5.2-8.7-10.9-12.8-17.1c0.8-0.4,1.6-0.8,2.5-1.2
					C123.6,65.8,129.3,72.2,135.3,78.6z"/>
				<path class="st6" d="M130,217.2h4.6c-2.4,0.5-4.7,1.5-6.6,3v-1.8C128.6,217.9,129.3,217.5,130,217.2z"/>
				<path class="st6" d="M128,215.7h6.5c-1.6,0.3-3.1,0.8-4.5,1.5H128v1.2c-0.5,0.3-1,0.7-1.5,1.1v-2.3
					C126.5,216.4,127.1,215.7,128,215.7z"/>
				<path class="st5" d="M132,318.2l0.1,2.7c-2,0-3.9,0.7-5.5,1.9l-0.5-4.3C128.1,318.4,130.1,318.3,132,318.2z"/>
				<path class="st6" d="M130,217.2c-0.7,0.3-1.4,0.8-2.1,1.2v-1.2H130z"/>
				<path class="st1" d="M128.6,117.8l0.3,5.8l-4.9-3.1c-1.8-1.1-3.5-2.3-5-3.6c-0.1-0.7-0.2-1.4-0.2-2.1c1.8,1.6,3.9,3,6.1,4.4
					l2.4,1.5l-0.1-2.9c-0.1-2.4-0.3-5.3-0.4-8.1c0.5,0.5,1,1,1.6,1.4C128.4,113.5,128.6,115.8,128.6,117.8z"/>
				<path class="st3" d="M128.9,78l-8.3-0.8c0-0.1-0.1-0.2-0.1-0.2c-0.8-1.4-1.6-2.9-2.4-4.3c-1.5-2.9-3-5.7-4.4-8.5
					c-0.3-0.5-0.5-1.1-0.8-1.6c1-0.6,2.1-1.1,3.2-1.6C120.2,67.1,124.6,72.8,128.9,78z"/>
				<path class="st1" d="M128,226.9v1.7c-0.5-0.2-1-0.4-1.5-0.7v-1.7C127,226.4,127.5,226.7,128,226.9z"/>
				<path class="st1" d="M128,225.3v1.6c-0.5-0.2-1-0.4-1.5-0.7v-1.6C127,224.8,127.5,225,128,225.3z"/>
				<path class="st6" d="M128,222.1v3.1c-0.5-0.2-1-0.5-1.5-0.7v-0.9C126.9,223.1,127.4,222.6,128,222.1z"/>
				<path class="st6" d="M128,220.2v1.9c-0.5,0.5-1,1-1.5,1.5v-2.2C126.9,221,127.4,220.6,128,220.2z"/>
				<path class="st6" d="M128,218.4v1.8c-0.5,0.4-1,0.8-1.5,1.3v-2C126.9,219.1,127.4,218.7,128,218.4z"/>
				<path class="st9" d="M127.1,326.5l0.8,6.8h-3.1C124.8,330.6,125.7,328.2,127.1,326.5z"/>
				<path class="st1" d="M127.2,117.9l0.1,2.9l-2.4-1.5c-2.2-1.4-4.2-2.8-6.1-4.4c-0.1-0.7-0.1-1.4-0.2-2.2c0,0,0.1,0.1,0.1,0.1
					c0.3,0.3,0.7,0.6,1.1,0.9c0.7,0.6,1.5,1.2,2.3,1.8c0.3,0.3,0.7,0.5,1.1,0.8c0.8,0.6,1.6,1.1,2.5,1.7c0-0.5-0.1-1.1-0.1-1.6
					c0-0.5,0-1-0.1-1.4c-0.1-1.1-0.1-2.2-0.2-3.3c0-0.4,0-0.8,0-1.1c0-0.4,0-0.8-0.1-1.1c0-0.4,0-0.7,0-1.1c0.5,0.5,1,1,1.6,1.5
					C126.9,112.6,127,115.5,127.2,117.9z"/>
				<path class="st0" d="M124.8,98.6c0.9,1,1.8,2,2.8,2.9C126.6,100.5,125.7,99.5,124.8,98.6C124.8,98.6,124.8,98.6,124.8,98.6z"/>
				<path class="st1" d="M126.5,226.2v1.7c-1-0.5-2-1-3-1.5l1.3-1.1C125.3,225.6,125.9,225.9,126.5,226.2z"/>
				<path class="st1" d="M126.5,224.6v1.6c-0.6-0.3-1.1-0.5-1.7-0.8l1.1-0.9c0-0.1,0.1-0.1,0.1-0.1
					C126.1,224.4,126.3,224.5,126.5,224.6z"/>
				<path class="st6" d="M126.5,223.7v0.9c-0.2-0.1-0.3-0.2-0.5-0.2C126.1,224.1,126.3,223.9,126.5,223.7z"/>
				<path class="st6" d="M126.5,221.5v2.2c-0.2,0.2-0.3,0.4-0.5,0.6c-0.5-0.2-1-0.5-1.4-0.7l0.2-0.2
					C125.3,222.7,125.8,222.1,126.5,221.5z"/>
				<path class="st6" d="M126.5,219.5v2c-0.6,0.6-1.2,1.2-1.7,1.9l-0.2,0.2c-0.5-0.2-1-0.5-1.4-0.8l0.6-0.5
					C124.5,221.3,125.4,220.3,126.5,219.5z"/>
				<path class="st1" d="M126,224.3c0,0-0.1,0.1-0.1,0.1l-1.1,0.9c-0.5-0.2-1-0.5-1.5-0.8l1.2-1C125,223.8,125.5,224.1,126,224.3z"
					/>
				<path class="st0" d="M125.6,116.3c0,0.6,0.1,1.1,0.1,1.6c-0.9-0.5-1.7-1.1-2.5-1.7c-0.4-0.3-0.7-0.5-1.1-0.8
					c-0.8-0.6-1.6-1.2-2.3-1.8c-0.4-0.3-0.7-0.6-1.1-0.9c0,0-0.1-0.1-0.1-0.1v0c-0.1-1.8-0.2-3.6-0.3-5.3c2.3,1.2,4.7,2,6.9,1.9
					c0,0.4,0,0.7,0.1,1.1c0,0.4,0,0.8,0,1.1c0.1,1.1,0.1,2.2,0.2,3.3C125.5,115.4,125.6,115.9,125.6,116.3z"/>
				<path class="st2" d="M125.6,116.3c0-0.5-0.1-1-0.1-1.4C125.5,115.4,125.6,115.9,125.6,116.3z"/>
				<path class="st2" d="M125.3,111.6c0-0.4,0-0.8,0-1.1C125.3,110.8,125.3,111.2,125.3,111.6z"/>
				<path class="st3" d="M125.2,109.3c-2.2,0.1-4.6-0.7-6.9-1.9c-0.2-4.5-0.1-8-0.1-8c1.7,2.9,4.1,5.9,6.9,8.8
					C125.2,108.6,125.2,108.9,125.2,109.3z"/>
				<path class="st1" d="M124.8,225.4l-1.3,1.1c-0.5-0.2-1-0.5-1.4-0.8l1.3-1.1C123.8,224.9,124.3,225.1,124.8,225.4z"/>
				<path class="st1" d="M124.5,223.6l-1.2,1c-0.5-0.2-0.9-0.5-1.4-0.8l1.2-1C123.6,223.1,124.1,223.4,124.5,223.6z"/>
				<path class="st1" d="M123.3,224.6l-1.3,1.1c-0.5-0.2-0.9-0.5-1.4-0.8l1.3-1.1C122.4,224.1,122.8,224.4,123.3,224.6z"/>
				<path class="st0" d="M122.1,115.5c0.4,0.3,0.7,0.5,1.1,0.8C122.8,116.1,122.4,115.8,122.1,115.5z"/>
				<path class="st1" d="M123.1,222.8l-1.2,1c-20-11.4-35.9-33.6-43.6-61.2l2.9,4.5C89.3,192.3,104.4,212.4,123.1,222.8z"/>
				<path class="st1" d="M116.5,137.8c4,0,7.2,3.2,7.2,7.2c0,3.9-3.2,7.1-7.2,7.1c-4,0-7.2-3.2-7.2-7.1
					C109.4,141,112.6,137.8,116.5,137.8z"/>
				<path class="st1" d="M121.9,223.8l-1.3,1.1c-9.5-5.5-18.2-13.4-25.6-23.6c-9-12.2-15.5-26.9-19.4-42.8c0.1,0.2,0.2,0.3,0.3,0.5
					l2.4,3.7C86,190.2,101.9,212.4,121.9,223.8z"/>
				<path class="st0" d="M120.8,57.2c0.3,0.4,0.7,0.8,1,1.2c-0.7,0.3-1.5,0.6-2.2,0.9c-0.2-0.2-0.4-0.5-0.5-0.7
					c-0.1-0.2-0.3-0.3-0.4-0.5C119.4,57.8,120.1,57.5,120.8,57.2z"/>
				<path class="st3" d="M143.8,50.1c-8.5,0.8-16.6,2.9-24,5.9c-2-2.3-3.8-4.6-5.6-6.6c-2-2.5-3.9-4.7-5.5-6.7
					c-1.6-2-3.1-3.8-4.2-5.2c-2.2-2.7-3.5-4.3-3.6-4.5l2.7,0c0,0,0.7,0.2,2.1,0.6c0,0,0,0,0,0c0,0,0,0,0,0
					C111.1,35.2,126.2,40.1,143.8,50.1z"/>
				<path class="st0" d="M120.8,57.2L120.8,57.2c-0.7,0.3-1.4,0.6-2.1,0.9c-0.3-0.4-0.7-0.8-1-1.2c0.7-0.3,1.4-0.6,2.1-0.9
					C120.1,56.5,120.4,56.8,120.8,57.2z"/>
				<path class="st3" d="M120.4,77c0,0.1,0.1,0.2,0.1,0.2l-0.2,0l-2.5,1.2c-0.8-1.5-1.6-3-2.4-4.4c-0.8-1.5-1.5-2.9-2.2-4.4
					c-0.7-1.5-1.4-2.9-2-4.4c-0.2-0.5-0.4-1-0.6-1.4c0.7-0.4,1.5-0.9,2.3-1.3c0.2,0.5,0.5,1,0.8,1.6c1.3,2.8,2.9,5.7,4.4,8.5
					C118.8,74.2,119.7,75.6,120.4,77z"/>
				<path class="st0" d="M118.7,112.8c0.3,0.3,0.7,0.6,1.1,0.9C119.4,113.4,119.1,113.1,118.7,112.8z"/>
				<path class="st1" d="M115.8,123.3l4,6l-7-1.4c-0.4-0.1-6.3-1.3-13.2-4.6c-0.1-0.6-0.1-1.1-0.1-1.7c7,3.6,13.3,4.8,13.7,4.9
					l3.5,0.7l-2-3c-1.7-2.5-3-5.1-4.1-7.8c1,1,2,1.9,2.9,2.7C114,120.5,114.8,121.9,115.8,123.3z"/>
				<path class="st2" d="M119.1,58.7c0.2,0.2,0.4,0.5,0.5,0.7c-0.3,0.1-0.7,0.3-1,0.4c-0.3-0.4-0.7-0.8-1-1.2c0.3-0.2,0.7-0.3,1-0.5
					C118.8,58.3,118.9,58.5,119.1,58.7z"/>
				<path class="st0" d="M119.8,56c-0.7,0.3-1.4,0.6-2.1,0.9c-1.8-2.2-3.3-4.4-4.9-6.4c-3.8-5.1-6.8-9.5-8.9-12.6
					c-1-1.5-1.8-2.8-2.4-3.6c-0.5-0.7-0.7-1.2-0.8-1.3c0,0,0,0,0,0c0.2,0.2,1.5,1.8,3.6,4.5c1.2,1.4,2.6,3.2,4.2,5.2
					c1.7,2,3.5,4.2,5.5,6.7C115.9,51.5,117.8,53.7,119.8,56z"/>
				<path class="st4" d="M119,117c0.4,3.4,1.2,6.5,2.2,8c0,0-3.2-1.7-8-6c-2-3.9-3.3-8-4.2-11.9C111.7,110.3,115,113.8,119,117z"/>
				<path class="st1" d="M118.8,114.8c0.1,0.7,0.1,1.4,0.2,2.1c-4.1-3.2-7.4-6.7-9.9-9.8c0.8,3.9,2.2,8,4.2,11.9
					c-0.9-0.8-1.9-1.7-2.9-2.7c-2.1-5.1-3.3-10.4-3.7-14.9C109.2,105.1,113.2,110.2,118.8,114.8z"/>
				<path class="st1" d="M118.6,112.7c0.1,0.7,0.1,1.4,0.2,2.2c-5.6-4.7-9.6-9.8-12.1-13.4c0.4,4.5,1.6,9.8,3.7,14.9
					c-0.8-0.8-1.7-1.7-2.6-2.7c-2.1-6.3-3-12.7-2.6-17.7l0.3,0.6c0.2,0.3,0.3,0.6,0.6,1c0.2,0.3,0.4,0.7,0.7,1.2
					c0.4,0.6,0.8,1.3,1.4,2.1c0.2,0.4,0.5,0.7,0.8,1.1c1,1.4,2.2,3,3.6,4.6c0.2,0.2,0.4,0.5,0.6,0.7c0.3,0.3,0.5,0.6,0.8,0.9
					c0.3,0.3,0.6,0.6,0.9,0.9c0.3,0.3,0.6,0.6,0.9,0.9c0.6,0.6,1.3,1.3,2,1.9C118,112.2,118.3,112.4,118.6,112.7z"/>
				<path class="st0" d="M118.6,112.7L118.6,112.7c-0.3-0.2-0.6-0.5-0.9-0.8C118,112.2,118.3,112.4,118.6,112.7z"/>
				<path class="st0" d="M118.6,112.7c-0.3-0.2-0.6-0.5-0.9-0.8c-0.7-0.6-1.3-1.2-2-1.9c-0.3-0.3-0.6-0.6-0.9-0.9
					c-0.3-0.3-0.6-0.6-0.9-0.9c-0.3-0.3-0.6-0.6-0.8-0.9c-0.2-0.2-0.4-0.5-0.6-0.7c-1.4-1.6-2.6-3.2-3.6-4.6
					c-0.3-0.4-0.5-0.8-0.8-1.1c-0.5-0.8-1-1.5-1.4-2.1c-0.3-0.4-0.5-0.8-0.7-1.2c-0.2-0.4-0.4-0.7-0.6-1l-0.3-0.6
					c0,0,6.2,7.8,13.2,11.4C118.4,109.1,118.5,110.9,118.6,112.7z"/>
				<path class="st0" d="M117.6,58.6c0.3,0.4,0.7,0.8,1,1.2c-0.8,0.4-1.7,0.8-2.5,1.2c-0.3-0.4-0.5-0.8-0.8-1.2
					C116.1,59.3,116.9,58.9,117.6,58.6z"/>
				<path class="st2" d="M117.7,56.9c0.3,0.4,0.6,0.8,1,1.2c-0.3,0.2-0.7,0.3-1,0.5c-0.3-0.4-0.7-0.8-1-1.2
					C117,57.2,117.3,57.1,117.7,56.9z"/>
				<path class="st3" d="M117.9,78.5l-23,11.6l-3.6,4c-0.4-1.4-0.7-2.8-1-4.2c-0.1-0.7-0.3-1.4-0.4-2.1c-0.1-0.7-0.2-1.4-0.3-2.2
					c-0.2-1.1-0.2-2.1-0.3-3.2c5.8-7.3,13-13.6,21.3-18.5c0.2,0.5,0.4,0.9,0.6,1.4c0.6,1.4,1.3,2.9,2,4.4c0.7,1.5,1.4,2.9,2.2,4.4
					C116.3,75.5,117.1,77,117.9,78.5z"/>
				<path class="st3" d="M117.7,56.9c-0.3,0.2-0.7,0.3-1,0.5c-3.5-4.2-6.6-8.3-9.4-11.9c2.1,4.4,4.6,8.8,7.2,12.9
					c-1,0.5-1.9,1-2.8,1.5c-0.6-1.3-1.2-2.6-1.8-3.9c-1.1-2.6-2.2-5.1-3.2-7.4c-3.7-9-5.8-15.2-5.9-15.6c0.1,0.1,0.4,0.5,0.8,1.3
					c0.5,0.8,1.3,2.1,2.4,3.6c2.1,3.1,5.1,7.5,8.9,12.6C114.3,52.5,115.9,54.7,117.7,56.9z"/>
				<path class="st0" d="M116.7,57.4c0.3,0.4,0.7,0.8,1,1.2c-0.8,0.3-1.6,0.7-2.3,1.1c-0.3-0.4-0.5-0.8-0.8-1.3
					C115.2,58.1,115.9,57.7,116.7,57.4z"/>
				<path class="st1" d="M114.5,124.2l2,3l-3.5-0.7c-0.4-0.1-6.6-1.3-13.7-4.9c-0.1-0.6-0.1-1.2-0.1-1.8c7.4,3.9,14.1,5.2,14.1,5.2
					c0,0,0,0,0,0c-0.3-0.5-0.7-1-1-1.5c-0.3-0.4-0.5-0.9-0.8-1.4c-0.1-0.2-0.2-0.4-0.3-0.6c-0.2-0.3-0.3-0.5-0.4-0.8
					c-0.1-0.2-0.2-0.4-0.3-0.5c-0.2-0.4-0.4-0.8-0.5-1.2c-0.3-0.6-0.6-1.2-0.8-1.8c-0.2-0.4-0.3-0.8-0.5-1.2c0-0.1-0.1-0.2-0.1-0.3
					c-0.2-0.4-0.3-0.9-0.5-1.3c-0.1-0.2-0.2-0.4-0.2-0.6c0.9,1,1.8,1.9,2.6,2.7C111.5,119,112.9,121.7,114.5,124.2z"/>
				<path class="st0" d="M114.9,109.1c0.3,0.3,0.6,0.6,0.9,0.9C115.5,109.7,115.2,109.4,114.9,109.1z"/>
				<path class="st0" d="M116.7,57.4c-0.7,0.3-1.4,0.7-2.2,1c-2.6-4.2-5.1-8.5-7.2-12.9C110,49.1,113.2,53.2,116.7,57.4z"/>
				<path class="st3" d="M115.3,59.7c0.3,0.4,0.6,0.8,0.8,1.2c-1.1,0.5-2.1,1.1-3.2,1.6c-0.2-0.5-0.4-0.9-0.6-1.3
					C113.3,60.7,114.3,60.2,115.3,59.7z"/>
				<path class="st3" d="M114.5,58.4c0.3,0.4,0.5,0.9,0.8,1.3c-1,0.5-2,1-3,1.6c-0.2-0.5-0.4-0.9-0.6-1.4
					C112.6,59.4,113.5,58.9,114.5,58.4z"/>
				<path class="st0" d="M114,108.2c0.3,0.3,0.6,0.6,0.9,0.9C114.6,108.8,114.3,108.5,114,108.2z"/>
				<path class="st3" d="M109.4,122.5c-0.1-0.1-1.2-1.2-3-2.8c-1-0.9-2-2.1-3.2-3.4c1.6-0.3,3.3-0.9,4.9-2c0.1,0.4,0.3,0.9,0.5,1.3
					c0,0.1,0.1,0.2,0.1,0.3c0.1,0.4,0.3,0.8,0.5,1.2c0.2,0.6,0.5,1.2,0.8,1.8c0.2,0.4,0.3,0.8,0.5,1.2c0.1,0.2,0.2,0.4,0.3,0.5
					c0.1,0.3,0.3,0.5,0.4,0.8c0.1,0.2,0.2,0.4,0.3,0.6c0.3,0.5,0.5,0.9,0.8,1.4c0.3,0.5,0.6,1,1,1.5c0,0,0,0,0,0
					c0,0-6.7-1.3-14.1-5.2c-0.1-1.2-0.2-2.3-0.2-3.5c0.9,0.1,1.8,0.1,2.8,0.1c0.2,0.2,0.4,0.4,0.6,0.6c1.4,1.2,2.6,2.3,3.7,3.1
					C108,121.5,109.2,122.4,109.4,122.5z"/>
				<path class="st2" d="M112.3,123.4c0.3,0.5,0.6,1,1,1.5C112.9,124.5,112.6,123.9,112.3,123.4z"/>
				<path class="st0" d="M112.6,106.5c0.2,0.2,0.4,0.5,0.6,0.7C113,107,112.8,106.8,112.6,106.5z"/>
				<path class="st3" d="M112.3,61.2c0.2,0.4,0.4,0.9,0.6,1.3c-0.8,0.4-1.5,0.8-2.3,1.3c-0.2-0.5-0.4-0.9-0.6-1.4
					C110.8,62,111.6,61.6,112.3,61.2z"/>
				<path class="st2" d="M111.5,122c0.3,0.5,0.5,0.9,0.8,1.4C112,123,111.7,122.5,111.5,122z"/>
				<path class="st3" d="M111.7,59.9c0.2,0.5,0.4,0.9,0.6,1.4c-0.8,0.4-1.5,0.8-2.2,1.2c-0.2-0.5-0.4-0.9-0.6-1.4
					C110.2,60.7,110.9,60.3,111.7,59.9z"/>
				<path class="st2" d="M110.7,120.6c0.1,0.3,0.3,0.5,0.4,0.8C111,121.2,110.8,120.9,110.7,120.6z"/>
				<path class="st3" d="M109.9,56c0.6,1.3,1.2,2.6,1.8,3.9c-0.7,0.4-1.4,0.8-2.2,1.2c-0.6-1.4-1.1-2.9-1.7-4.2
					c-1-2.7-2-5.3-2.7-7.7c-0.8-2.4-1.5-4.6-2-6.6c-0.6-2-1-3.7-1.3-5.1c-0.3-1.4-0.6-2.6-0.7-3.3c-0.2-0.8-0.2-1.2-0.2-1.2s0,0,0,0
					c0.1,0.4,2.2,6.6,5.9,15.6C107.7,50.9,108.8,53.4,109.9,56z"/>
				<path class="st2" d="M109.9,118.9c0.2,0.4,0.3,0.8,0.5,1.2C110.2,119.7,110.1,119.3,109.9,118.9z"/>
				<path class="st3" d="M110.1,62.5c0.2,0.5,0.4,0.9,0.6,1.4c-8.3,4.9-15.6,11.2-21.3,18.5c0-0.4-0.1-0.8-0.1-1.2c0-0.3,0-0.7,0-1
					C95,73.2,102.1,67.2,110.1,62.5z"/>
				<path class="st3" d="M109.5,61.1c0.2,0.5,0.4,0.9,0.6,1.4c-8,4.7-15.1,10.7-20.9,17.6c0-0.8-0.1-1.5-0.1-2.3
					C94.9,71.3,101.8,65.6,109.5,61.1z"/>
				<path class="st0" d="M108.6,115.8c0.2,0.4,0.3,0.8,0.5,1.2C108.9,116.7,108.8,116.3,108.6,115.8z"/>
				<path class="st0" d="M106.4,119.6c1.8,1.7,2.9,2.7,3,2.8c-0.2-0.1-1.4-0.9-3.4-2.4c-1.1-0.8-2.2-1.9-3.7-3.1
					c-0.2-0.2-0.4-0.4-0.6-0.6c0.5,0,1-0.1,1.5-0.2C104.4,117.5,105.4,118.7,106.4,119.6z"/>
				<path class="st3" d="M107.8,56.9c0.5,1.4,1.1,2.8,1.7,4.2c-7.8,4.5-14.6,10.2-20.3,16.8c0-1.9,0-3.7,0.2-5.6
					c0.2-2.9,0.5-5.8,0.9-8.5c0.5-2.7,0.9-5.4,1.5-7.9c0.6-2.5,1.2-4.9,1.8-7c0.6-2.1,1.2-4.1,1.8-5.8c0.6-1.7,1.1-3.2,1.6-4.5
					c0.9-2.3,1.5-3.7,1.5-3.8c0,0,0,0,0,0c0,0,0,0,0,0l2.5-0.6c0.2,0.8,0.4,1.9,0.7,3.3c0.3,1.4,0.8,3.2,1.3,5.1
					c0.6,2,1.2,4.2,2,6.6C105.9,51.6,106.8,54.2,107.8,56.9z"/>
				<path class="st0" d="M108.2,100.8c0.2,0.4,0.5,0.7,0.8,1.1C108.7,101.6,108.4,101.2,108.2,100.8z"/>
				<path class="st0" d="M108,114.3c0.2,0.4,0.3,0.9,0.5,1.3C108.3,115.2,108.2,114.7,108,114.3z"/>
				<path class="st3" d="M107.8,113.6c0.1,0.2,0.1,0.4,0.2,0.6c-1.6,1.1-3.2,1.7-4.9,2c0,0,0,0,0,0c-0.6-0.7-1.2-1.5-1.8-2.2
					c-0.3-0.4-0.6-0.8-1-1.2c-0.3-0.4-0.6-0.9-1-1.3c-0.2-0.3-0.4-0.7-0.7-1c-0.2-5-0.2-8.6-0.2-8.6
					C101.7,106.5,104.9,110.5,107.8,113.6z"/>
				<path class="st0" d="M106.8,98.8c-0.3-0.4-0.5-0.8-0.7-1.2C106.3,97.9,106.5,98.3,106.8,98.8z"/>
				<path class="st0" d="M103.1,116.2C103.1,116.2,103.2,116.2,103.1,116.2c-0.4,0.1-0.9,0.2-1.4,0.2c-0.5-0.5-1-1-1.5-1.5
					c-0.4-0.4-0.7-0.8-1.1-1.2c-0.1-0.1-0.2-0.2-0.3-0.3c0-1.1-0.1-2.1-0.1-3c0.2,0.3,0.5,0.7,0.7,1c0.3,0.4,0.6,0.9,1,1.3
					c0.3,0.4,0.7,0.8,1,1.2C101.9,114.7,102.5,115.5,103.1,116.2z"/>
				<path class="st3" d="M101.7,116.4c-0.9,0.1-1.9,0-2.8-0.1c0-1-0.1-2-0.1-2.9c0.1,0.1,0.2,0.2,0.3,0.3c0.4,0.4,0.8,0.8,1.1,1.2
					C100.7,115.4,101.2,115.9,101.7,116.4z"/>
				<path class="st1" d="M97.4,136.5l3,6l-6.5-1.7c-4.8-1.3-9.3-3.5-13.6-6.8c0.1-0.6,0.2-1.1,0.3-1.6c4.3,3.4,8.9,5.7,13.7,7
					l3.2,0.9l-1.5-3c-1-2-1.9-4-2.6-6c0.8,0.6,1.6,1.2,2.3,1.7C96.3,134.1,96.8,135.3,97.4,136.5z"/>
				<path class="st4" d="M99.4,123.3c0.5,5.9,1.4,11.2,2.7,13c0,0-2.7-0.9-6.3-3.4c-2.1-5.1-3.3-10.2-4-14.1
					C94.3,120.6,96.9,122.1,99.4,123.3z"/>
				<path class="st1" d="M99.3,121.6c0,0.6,0.1,1.2,0.1,1.7c-2.5-1.2-5.1-2.7-7.7-4.5c0.7,3.9,1.9,9,4,14.1
					c-0.7-0.5-1.5-1.1-2.3-1.7c-2.3-6.3-3.3-12.2-3.7-15.9C92.8,117.9,96.2,120,99.3,121.6z"/>
				<path class="st1" d="M99.2,119.8c0,0.6,0.1,1.2,0.1,1.8c-3.2-1.6-6.5-3.7-9.5-6.3c0.4,3.7,1.4,9.6,3.7,15.9
					c-0.7-0.6-1.5-1.3-2.3-2c-0.1-0.3-0.2-0.6-0.3-0.9c0-0.2-0.1-0.3-0.2-0.5c-2.7-9-2.8-16.3-2.8-16.3
					C91.3,115.1,95.3,117.8,99.2,119.8z"/>
				<path class="st0" d="M98.9,116.3c0.1,1.2,0.1,2.3,0.2,3.5c-3.8-2-7.9-4.7-11.2-8.3C88,111.5,92.9,115.6,98.9,116.3z"/>
				<path class="st3" d="M98.8,113.4c0,0.9,0.1,1.9,0.1,2.9c-6.1-0.8-11-4.8-11-4.8s0.2,7.3,2.8,16.3c-0.2,0.1-0.5,0.1-0.8,0.2
					c-1.7-1.8-3.5-3.9-5.2-6.5c-0.2,0.1-0.3,0.2-0.5,0.3c-0.2-0.4-0.4-0.9-0.6-1.3c-0.9-2.3-1.9-4.7-2.7-7.4c-0.2-0.7-0.4-1.3-0.7-2
					c-0.2-0.7-0.3-1.4-0.5-2.1c-0.2-0.6-0.3-1.2-0.5-1.8l9.7-10.7l0.2,0.4c0.3,0.7,0.5,1.4,0.8,2.1c0.2,0.7,0.6,1.3,0.8,2
					c0.3,0.6,0.6,1.3,0.9,1.9c0.6,1.2,1.3,2.4,2,3.6c0.7,1.1,1.4,2.2,2.1,3.2c0.7,1,1.5,1.9,2.2,2.8
					C98.3,112.8,98.5,113.1,98.8,113.4z"/>
				<path class="st0" d="M98.7,110.4c0,1,0.1,2,0.1,3c-0.3-0.3-0.5-0.7-0.8-1c-0.7-0.9-1.5-1.8-2.2-2.8c-0.7-1-1.4-2.1-2.1-3.2
					c-0.6-1.2-1.3-2.3-2-3.6c-0.3-0.6-0.6-1.3-0.9-1.9c-0.3-0.7-0.6-1.3-0.8-2c-0.2-0.7-0.5-1.4-0.8-2.1l-0.2-0.4l2.2-2.4
					c0.4,1.4,0.8,2.7,1.2,4c0.4,1.3,1,2.5,1.5,3.8c0.5,1.2,1.1,2.4,1.7,3.5c0.6,1.1,1.3,2.2,1.8,3.2
					C97.8,109.2,98.3,109.8,98.7,110.4z"/>
				<path class="st0" d="M98.5,34.8c-0.1,0.2-0.7,1.5-1.5,3.8c-0.5,1.2-1,2.7-1.6,4.5c-0.6,1.7-1.2,3.7-1.8,5.8
					c-0.6,2.2-1.2,4.5-1.8,7c-0.6,2.5-1,5.1-1.5,7.9c-0.4,2.8-0.7,5.6-0.9,8.5c-0.1,1.8-0.2,3.7-0.2,5.6c-1,1.2-2,2.3-2.9,3.6
					c0,0,0-0.1,0-0.2c-0.1-3.1-0.1-6.1,0.2-9.2c0.2-3,0.7-5.9,1.2-8.8c0.6-2.8,1.2-5.5,2-8c0.7-2.5,1.5-4.8,2.3-7
					c1.6-4.3,3.3-7.7,4.5-10c0.2-0.3,0.3-0.6,0.4-0.8C97.8,35.9,98.4,34.9,98.5,34.8z"/>
				<path class="st1" d="M96.1,137.1l1.5,3l-3.2-0.9c-4.8-1.3-9.4-3.6-13.7-7c0.1-0.6,0.2-1.1,0.4-1.6c3.9,3.2,8.5,5.8,13.7,7.2
					c-0.3-0.5-0.5-1.1-0.8-1.6c-0.3-0.7-0.6-1.3-0.9-2c-0.2-0.5-0.4-1-0.6-1.5c-0.2-0.4-0.3-0.8-0.5-1.2c-0.2-0.4-0.3-0.8-0.4-1.2
					c-0.1-0.2-0.1-0.4-0.2-0.5c-0.1-0.2-0.1-0.4-0.2-0.6c0.8,0.7,1.5,1.4,2.3,2C94.2,133.1,95.1,135.1,96.1,137.1z"/>
				<path class="st3" d="M94.8,37.5l2.1,0c-0.1,0.3-0.3,0.5-0.4,0.8c-1.2,2.3-2.9,5.8-4.5,10c-0.8,2.1-1.6,4.5-2.3,7
					c-0.8,2.5-1.4,5.2-2,8c-0.5,2.8-1,5.7-1.2,8.8c-0.3,3-0.3,6.1-0.2,9.2c0,0.1,0,0.1,0,0.2c-3.4,4.5-6.3,9.4-8.7,14.5
					c0-0.2,0-0.4,0-0.5c-0.3-3.2-0.3-6.4-0.1-9.6c0.1-1.6,0.2-3.2,0.4-4.8c0.2-1.6,0.4-3.2,0.7-4.8c0.5-3.2,1.3-6.2,2.1-9.1
					c0.9-2.9,1.8-5.7,2.8-8.3c1-2.6,2.1-5,3.1-7.2c1-2.2,2.1-4.2,3.1-5.9c1-1.7,1.9-3.2,2.7-4.4c0.8-1.2,1.4-2.1,1.8-2.8
					C94.4,38,94.6,37.7,94.8,37.5C94.7,37.5,94.7,37.5,94.8,37.5z"/>
				<path class="st0" d="M91.2,134.9c-0.2-0.3-1-1.7-2.2-3.8c-0.5-0.8-1-1.7-1.5-2.7c0.8-0.1,1.7-0.2,2.6-0.4
					c0.4,0.4,0.8,0.8,1.2,1.2l0,0c0,0.2,0.1,0.4,0.2,0.6c0.1,0.2,0.1,0.4,0.2,0.5c0.1,0.4,0.3,0.8,0.4,1.2c0.1,0.4,0.3,0.8,0.5,1.2
					c0.2,0.5,0.4,1,0.6,1.5c0.3,0.7,0.6,1.3,0.9,2c0.2,0.5,0.5,1.1,0.8,1.6c-5.2-1.4-9.8-4-13.7-7.2c0.2-1,0.5-2,0.7-2.9
					c1.5,0.4,3.2,0.6,5,0.6c0.7,1.1,1.3,2.1,1.9,2.9C90.1,133.3,91,134.6,91.2,134.9z"/>
				<path class="st3" d="M94.6,37.7c0.1-0.1,0.1-0.1,0.2-0.2c-0.1,0.1-0.3,0.4-0.6,0.9c-0.4,0.6-1.1,1.6-1.8,2.8
					c-0.8,1.2-1.7,2.7-2.7,4.4c-1,1.8-2,3.7-3.1,5.9c-1.1,2.2-2.1,4.6-3.1,7.2c-1,2.6-1.9,5.4-2.8,8.3c-0.8,2.9-1.6,6-2.1,9.1
					c-0.3,1.6-0.5,3.2-0.7,4.8c-0.2,1.6-0.3,3.2-0.4,4.8c-0.1,3.2-0.2,6.5,0.1,9.6c0,0.2,0,0.4,0,0.5c-0.5,1.2-1,2.4-1.5,3.6
					c-0.1-0.5-0.2-1.1-0.2-1.6c-0.1-0.8-0.1-1.6-0.2-2.4c-0.3-3.2-0.3-6.6-0.2-9.9c0.1-1.7,0.2-3.3,0.4-5c0.2-1.6,0.4-3.3,0.7-4.9
					c0.5-3.2,1.4-6.3,2.3-9.3c0.9-3,2-5.8,3.1-8.4c0.5-1.3,1.2-2.5,1.7-3.8c0.6-1.2,1.2-2.3,1.8-3.4c1.2-2.2,2.4-4.1,3.4-5.8
					c1.1-1.7,2.1-3.1,3-4.2c0.9-1.2,1.6-2,2.1-2.6C94.2,38.1,94.4,37.8,94.6,37.7z"/>
				<path class="st3" d="M92.5,35.9l2.1,1.8c-0.1,0.1-0.3,0.4-0.6,0.7c-0.5,0.6-1.2,1.4-2.1,2.6c-0.9,1.1-1.9,2.6-3,4.2
					c-1.1,1.7-2.3,3.6-3.4,5.8c-0.6,1.1-1.2,2.2-1.8,3.4c-0.6,1.2-1.2,2.5-1.7,3.8c-1.2,2.6-2.2,5.4-3.1,8.4c-0.8,3-1.7,6.1-2.3,9.3
					c-0.3,1.6-0.5,3.2-0.7,4.9c-0.2,1.6-0.3,3.3-0.4,5c-0.1,3.3-0.1,6.6,0.2,9.9c0.1,0.8,0.1,1.6,0.2,2.4c0.1,0.5,0.2,1.1,0.2,1.6
					c-2.7,7.1-4.3,14.6-4.5,22.5l-2.2,4.9l1.6,5.5c-2.6-3.4-4.6-7.1-6.3-10.8c0.3,1.6,0.6,3.2,0.9,4.8c-1.5-6.9-2.4-14-2.4-21.4
					C63.2,77.7,74.5,53,92.5,35.9z"/>
				<path class="st0" d="M94,136.2c-0.3-0.7-0.6-1.3-0.9-2C93.4,134.9,93.7,135.5,94,136.2z"/>
				<path class="st0" d="M92,131.5c0.2,0.4,0.3,0.8,0.5,1.2C92.3,132.3,92.2,131.9,92,131.5z"/>
				<path class="st0" d="M91.6,130.2c0.1,0.4,0.3,0.8,0.4,1.2C91.9,131.1,91.7,130.6,91.6,130.2z"/>
				<path class="st0" d="M91.2,129.1c0.1,0.2,0.1,0.4,0.2,0.6C91.3,129.5,91.3,129.3,91.2,129.1z"/>
				<path class="st0" d="M91.3,94l-2.2,2.4l-0.2-0.6l-0.3-1.1c-0.2-0.7-0.4-1.4-0.6-2.2c-0.2-0.7-0.3-1.5-0.5-2.2
					c-0.1-0.8-0.3-1.5-0.4-2.2c-0.1-0.8-0.2-1.5-0.3-2.3c0.8-1.2,1.7-2.4,2.7-3.6c0.1,1.1,0.1,2.1,0.3,3.2c0.1,0.7,0.2,1.4,0.3,2.2
					c0.1,0.7,0.3,1.4,0.4,2.1C90.6,91.2,90.9,92.7,91.3,94z"/>
				<path class="st0" d="M91.2,129.1L91.2,129.1c-0.1-0.3-0.2-0.6-0.3-0.9C91.1,128.6,91.1,128.9,91.2,129.1z"/>
				<path class="st0" d="M91,128.3c0.1,0.3,0.2,0.6,0.3,0.8c-0.4-0.4-0.8-0.8-1.2-1.2c0.2-0.1,0.5-0.1,0.8-0.2
					C90.9,127.9,90.9,128.1,91,128.3z"/>
				<path class="st3" d="M89,131.1c1.3,2.2,2.1,3.5,2.2,3.8c-0.2-0.3-1.1-1.6-2.6-3.6c-0.6-0.8-1.2-1.8-1.9-2.9c0.2,0,0.5,0,0.7,0
					C88,129.4,88.5,130.3,89,131.1z"/>
				<path class="st0" d="M89.3,81.1c0,0.4,0.1,0.8,0.1,1.2c-0.9,1.2-1.8,2.3-2.7,3.6c-0.1-0.7-0.2-1.5-0.2-2.2
					c0.9-1.2,1.8-2.4,2.8-3.6C89.2,80.4,89.2,80.8,89.3,81.1z"/>
				<path class="st0" d="M89.2,77.9c0,0.8,0,1.5,0.1,2.3c-1,1.2-1.9,2.3-2.8,3.6c-0.1-0.8-0.1-1.5-0.2-2.3
					C87.2,80.2,88.2,79,89.2,77.9z"/>
				<path class="st3" d="M89.1,96.4l-9.7,10.7c0-0.1-0.1-0.2-0.1-0.3c-0.2-0.7-0.3-1.5-0.4-2.2c-0.2-0.8-0.3-1.5-0.4-2.2
					c0-0.1,0-0.2,0-0.3c2-5.8,4.9-11.2,8.3-16.2c0.1,0.8,0.2,1.5,0.3,2.3c0.1,0.8,0.3,1.5,0.4,2.2c0.2,0.7,0.3,1.5,0.5,2.2
					c0.2,0.7,0.4,1.5,0.6,2.2l0.3,1.1L89.1,96.4z"/>
				<path class="st3" d="M90.1,128c-0.9,0.2-1.7,0.3-2.6,0.4c-0.3-0.6-0.6-1.2-0.9-1.8c-0.2-0.4-0.5-0.9-0.7-1.4
					c-0.2-0.5-0.4-1-0.7-1.5c-0.3-0.6-0.6-1.2-0.8-1.9c0.2-0.2,0.3-0.3,0.5-0.3C86.5,124,88.3,126.2,90.1,128z"/>
				<path class="st3" d="M87.5,128.4c-0.2,0-0.5,0-0.7,0c-0.3-0.5-0.6-1-0.9-1.5c-0.3-0.4-0.5-0.9-0.8-1.3c-0.2-0.5-0.5-1-0.8-1.5
					c-0.2-0.4-0.5-0.9-0.7-1.3c0.2-0.4,0.5-0.7,0.7-1c0.3,0.7,0.6,1.3,0.8,1.9c0.2,0.5,0.4,1,0.7,1.5c0.2,0.5,0.5,0.9,0.7,1.4
					C86.9,127.2,87.2,127.8,87.5,128.4z"/>
				<path class="st3" d="M86.8,128.4c-1.8,0-3.5-0.2-5-0.6c0.6-2.1,1.2-3.9,1.8-5c0.2,0.5,0.5,0.9,0.7,1.3c0.3,0.5,0.5,1,0.8,1.5
					c0.3,0.5,0.6,0.9,0.8,1.3C86.2,127.4,86.5,127.9,86.8,128.4z"/>
				<path class="st3" d="M86.5,83.7c0.1,0.7,0.1,1.5,0.2,2.2c-3.5,5-6.3,10.5-8.3,16.2c-0.1-0.7-0.2-1.3-0.3-2
					c0-0.3-0.1-0.7-0.1-1.1C80.1,93.6,83,88.4,86.5,83.7z"/>
				<path class="st3" d="M86.3,81.4c0.1,0.8,0.1,1.5,0.2,2.3c-3.5,4.8-6.3,9.9-8.5,15.3c-0.1-0.4-0.1-0.8-0.2-1.3
					c0-0.6-0.1-1.2-0.2-1.8C79.9,90.8,82.8,85.9,86.3,81.4z"/>
				<path class="st1" d="M81.3,156.6l4.1,17.1l-4.3-6.6c-0.6-1.7-1.1-3.4-1.6-5.2l2.3,3.6l-2.1-8.6c-0.7-2.9-1.3-5.8-1.8-8.7
					c0.2-1.6,0.5-3.3,0.7-5.2C79.4,147.6,80.3,152.2,81.3,156.6z"/>
				<path class="st3" d="M83.7,120.5c0.2,0.4,0.4,0.9,0.6,1.3c-0.2,0.2-0.5,0.6-0.7,1c-0.3-0.6-0.6-1.2-0.9-1.8
					c-1-2.3-2.2-4.7-3.1-7.4c-0.2-0.7-0.5-1.3-0.7-2c-0.2-0.7-0.4-1.4-0.6-2.1c-0.1-0.3-0.2-0.5-0.2-0.8l1.3-1.5
					c0.2,0.6,0.3,1.2,0.5,1.8c0.2,0.7,0.3,1.4,0.5,2.1c0.2,0.7,0.4,1.4,0.7,2C81.8,115.8,82.9,118.2,83.7,120.5z"/>
				<path class="st3" d="M82.7,121c0.3,0.6,0.6,1.2,0.9,1.8c-0.6,1.1-1.2,2.9-1.8,5c-4.2-1.1-7-3.2-7.2-3.4l0,0c0,0,0-0.1,0-0.1
					c0-3.6,0.3-7.1,0.8-10.6l1.9-4.2l0.7-0.8c0.1,0.3,0.1,0.5,0.2,0.8c0.2,0.7,0.4,1.4,0.6,2.1c0.2,0.7,0.5,1.4,0.7,2
					C80.5,116.3,81.7,118.7,82.7,121z"/>
				<path class="st1" d="M78.4,157.3L78.4,157.3c-0.3-1.4-0.7-2.8-0.9-4.2c0.1-1.1,0.3-2.8,0.6-4.8c0.5,2.9,1.1,5.8,1.8,8.7l2.1,8.6
					l-2.3-3.6C79.2,160.4,78.8,158.9,78.4,157.3L78.4,157.3z"/>
				<path class="st1" d="M81.2,167.1l-2.9-4.5c-0.4-1.5-0.8-3.1-1.2-4.7c0,0,0.1,0.1,0.1,0.2l2.4,3.8
					C80.1,163.7,80.6,165.4,81.2,167.1z"/>
				<path class="st0" d="M81.8,127.8c-0.2,0.9-0.5,1.9-0.7,2.9c-2.4-1.9-4.6-4.1-6.5-6.3C74.8,124.5,77.6,126.7,81.8,127.8z"/>
				<path class="st1" d="M81.1,130.7c-0.1,0.5-0.2,1.1-0.4,1.6c-1.6-1.2-3.1-2.6-4.6-4.1c0.2,6.8,0.8,13.5,2,20
					c-0.3,2-0.5,3.7-0.6,4.8c-0.1-0.2-0.1-0.4-0.1-0.6c-0.2-0.8-0.3-1.6-0.5-2.4c-0.3-1.6-0.5-3.1-0.8-4.7c0-0.1,0-0.2,0-0.3
					c-0.1-0.8-0.2-1.7-0.3-2.5c-0.1-0.7-0.2-1.4-0.2-2.1c0-0.1,0-0.3,0-0.4c0-0.1,0-0.2,0-0.2c0-0.3-0.1-0.6-0.1-0.9
					c-0.1-0.5-0.1-0.9-0.1-1.4l0,0c-0.1-0.8-0.1-1.6-0.2-2.4c-0.1-0.9-0.1-1.7-0.2-2.6c0-0.9-0.1-1.8-0.1-2.7c0,0,0,0,0,0
					c0-0.9-0.1-1.8-0.1-2.7c0-0.9,0-1.8,0-2.6l0,0C76.5,126.6,78.7,128.7,81.1,130.7z"/>
				<path class="st1" d="M80.7,132.3c-0.1,0.5-0.2,1.1-0.3,1.6c-0.9-0.7-1.8-1.4-2.6-2.1c0.2,3.8,0.6,7.5,1.1,11.2
					c-0.3,1.9-0.5,3.6-0.7,5.2c-1.1-6.6-1.8-13.2-2-20C77.6,129.7,79.2,131.1,80.7,132.3z"/>
				<path class="st4" d="M80.4,133.9c-0.6,3-1.1,6.2-1.6,9.1c-0.5-3.7-0.9-7.5-1.1-11.2C78.6,132.6,79.5,133.3,80.4,133.9z"/>
				<path class="st1" d="M79.6,161.9l-2.4-3.8c0,0-0.1-0.1-0.1-0.2c-0.4-1.5-0.7-3.1-1-4.6c0.1,0.1,0.2,0.3,0.2,0.4
					c0.3,0.5,0.5,0.9,0.8,1.4c0.1,0.1,0.1,0.2,0.2,0.3c0.1,0.2,0.2,0.3,0.3,0.5c0.3,0.5,0.6,0.9,0.9,1.4c0,0,0,0,0,0
					C78.8,158.9,79.2,160.4,79.6,161.9z"/>
				<path class="st3" d="M79.3,106.9c0,0.1,0.1,0.2,0.1,0.3l-1.3,1.5c-0.1-0.5-0.3-0.9-0.4-1.4c-0.2-0.6-0.3-1.1-0.4-1.7
					c0.3-1.2,0.7-2.3,1.1-3.5c0,0.1,0,0.2,0,0.3c0.2,0.8,0.3,1.5,0.4,2.2C79,105.4,79.1,106.1,79.3,106.9z"/>
				<path class="st2" d="M78.4,157.3L78.4,157.3L78.4,157.3C78.4,157.3,78.4,157.3,78.4,157.3C78.4,157.3,78.4,157.3,78.4,157.3z"/>
				<path class="st0" d="M78.4,157.3C78.4,157.3,78.4,157.3,78.4,157.3c-0.2-0.6-0.3-1.3-0.5-1.9C78.1,156,78.3,156.6,78.4,157.3z"
					/>
				<path class="st0" d="M78.4,157.3c-0.2-0.6-0.3-1.3-0.5-1.9c-0.2-0.8-0.3-1.5-0.5-2.2c0,0,0,0,0,0c0,0,0,0,0,0
					C77.8,154.5,78.1,155.9,78.4,157.3z"/>
				<path class="st0" d="M78.4,157.3c-0.3-0.4-0.6-0.9-0.9-1.4c-0.1-0.2-0.2-0.3-0.3-0.5c-0.1-0.1-0.1-0.2-0.2-0.3
					c-0.3-0.5-0.5-0.9-0.8-1.4c-0.1-0.1-0.2-0.3-0.2-0.4c-0.6-2.8-1.1-5.6-1.5-8.5l2.8,9.7c0,0,0.1-0.5,0.2-1.4
					c0.2,0.8,0.3,1.5,0.5,2.2C78.1,156,78.3,156.6,78.4,157.3z"/>
				<path class="st1" d="M78.3,162.6l-2.4-3.7c-0.1-0.2-0.2-0.3-0.3-0.5c-0.4-1.5-0.7-3.1-1-4.6c0.8,1.4,1.6,2.8,2.5,4.2
					C77.4,159.5,77.8,161.1,78.3,162.6z"/>
				<path class="st3" d="M78.1,100.1c0.1,0.7,0.2,1.3,0.3,2c-0.4,1.1-0.8,2.3-1.1,3.5c0-0.2-0.1-0.4-0.1-0.6
					c-0.2-0.8-0.3-1.5-0.5-2.3c0,0,0-0.1,0-0.1c0.4-1.2,0.8-2.4,1.3-3.6C78,99.4,78,99.8,78.1,100.1z"/>
				<path class="st3" d="M78.1,108.7l-0.7,0.8l-1.9,4.2c0.4-2.7,1.1-5.4,1.8-8c0.1,0.6,0.2,1.1,0.4,1.7
					C77.8,107.7,77.9,108.2,78.1,108.7z"/>
				<path class="st3" d="M77.8,97.8c0.1,0.4,0.1,0.8,0.2,1.3c-0.5,1.2-0.9,2.4-1.3,3.6c-0.2-0.8-0.2-1.5-0.4-2.3
					c0-0.3-0.1-0.5-0.1-0.8c0.5-1.2,1-2.4,1.5-3.6C77.7,96.6,77.7,97.2,77.8,97.8z"/>
				<path class="st2" d="M77.2,155.4c0.1,0.2,0.2,0.3,0.3,0.5C77.4,155.8,77.3,155.6,77.2,155.4z"/>
				<path class="st0" d="M77.5,153.1C77.5,153.1,77.5,153.1,77.5,153.1c-0.1-0.2-0.1-0.4-0.1-0.6C77.4,152.7,77.4,152.9,77.5,153.1z
					"/>
				<path class="st0" d="M77.4,152.5c0,0.2,0.1,0.4,0.1,0.6c-0.1-0.6-0.2-1.1-0.3-1.7C77.2,151.8,77.3,152.1,77.4,152.5z"/>
				<path class="st0" d="M77.5,153.1C77.5,153.1,77.5,153.1,77.5,153.1c-0.1,0.9-0.2,1.4-0.2,1.4l-2.8-9.7c-0.4-3-0.8-6.1-1-9.2
					c0.5,0.6,1.1,1.2,1.7,1.8c0,0.5,0.1,0.9,0.1,1.4c0,0.2,0,0.4,0.1,0.6c0,0.2,0,0.4,0.1,0.6c0,0.4,0.1,0.8,0.1,1.2
					c0,0.4,0.1,0.9,0.2,1.3c0.1,0.8,0.2,1.7,0.3,2.5c0,0.1,0,0.2,0,0.3c0.1,0.7,0.2,1.3,0.3,2c0,0,0,0,0,0c0.2,1.4,0.5,2.7,0.7,4
					C77.2,152,77.4,152.5,77.5,153.1z"/>
				<path class="st0" d="M76.9,150c0.2,0.8,0.3,1.6,0.5,2.4c-0.1-0.4-0.2-0.7-0.2-1.1C77.1,150.9,77,150.5,76.9,150z"/>
				<path class="st3" d="M77.1,105c0,0.2,0.1,0.4,0.1,0.6c-0.8,2.6-1.4,5.3-1.8,8l-2.1,4.6c0.5-5.4,1.6-10.6,3.3-15.6c0,0,0,0,0,0.1
					C76.8,103.5,77,104.2,77.1,105z"/>
				<path class="st0" d="M76.9,150c0.1,0.5,0.2,0.9,0.2,1.4c-0.3-1.3-0.5-2.7-0.7-4C76.6,148.3,76.7,149.2,76.9,150z"/>
				<path class="st2" d="M76.3,153.8c0.3,0.5,0.5,0.9,0.8,1.4C76.8,154.7,76.5,154.2,76.3,153.8z"/>
				<path class="st0" d="M76.9,150c-0.2-0.9-0.3-1.8-0.5-2.6c0,0,0,0,0,0c-0.1-0.7-0.2-1.3-0.3-2C76.4,146.9,76.6,148.5,76.9,150z"
					/>
				<path class="st3" d="M76.2,100.4c0.1,0.8,0.2,1.5,0.4,2.3c-1.7,5-2.8,10.2-3.3,15.6l-1.7,3.8c0.2-7.9,1.8-15.4,4.5-22.5
					C76.2,99.8,76.2,100.1,76.2,100.4z"/>
				<path class="st0" d="M76.1,145.4c0.1,0.7,0.2,1.3,0.3,2C76.3,146.7,76.2,146,76.1,145.4z"/>
				<path class="st1" d="M76,153.4c0.3,1.5,0.7,3.1,1,4.6c-0.9-1.4-1.7-2.8-2.5-4.2c-0.3-1.6-0.6-3.2-0.9-4.8
					c0.4,0.8,0.8,1.5,1.2,2.2c0.3,0.6,0.7,1.2,1,1.8C75.9,153.1,76,153.2,76,153.4z"/>
				<path class="st0" d="M75.7,142.6c0.1,0.8,0.2,1.7,0.3,2.5C76,144.2,75.8,143.4,75.7,142.6z"/>
				<path class="st0" d="M76,153.4c-0.1-0.1-0.1-0.2-0.2-0.3c-0.3-0.6-0.7-1.2-1-1.8c-0.4-0.8-0.8-1.5-1.2-2.3
					c-0.7-4.2-1.2-8.4-1.6-12.7l2.5,8.6C74.9,147.8,75.4,150.6,76,153.4z"/>
				<path class="st2" d="M74.8,151.2c0.3,0.6,0.7,1.2,1,1.8C75.5,152.4,75.2,151.8,74.8,151.2z"/>
				<path class="st0" d="M75.5,140.5c0.1,0.7,0.2,1.4,0.2,2.1c-0.1-0.4-0.1-0.9-0.2-1.3C75.6,141,75.5,140.7,75.5,140.5z"/>
				<path class="st0" d="M75.5,140.5c0,0.3,0.1,0.5,0.1,0.8c-0.1-0.4-0.1-0.8-0.1-1.2C75.5,140.2,75.5,140.3,75.5,140.5z"/>
				<path class="st0" d="M75.4,139.8c0,0.1,0,0.2,0,0.2c0-0.2-0.1-0.4-0.1-0.6C75.4,139.5,75.4,139.6,75.4,139.8z"/>
				<path class="st3" d="M73.3,118.2l2.1-4.6c-0.6,3.5-0.8,7-0.8,10.6c0,0,0,0.1,0,0.1c0,0.9,0,1.8,0,2.6c0,0.9,0,1.8,0.1,2.7
					c0,0,0,0,0,0c0,0.9,0.1,1.8,0.1,2.7c0,0.9,0.1,1.7,0.2,2.6c0.1,0.8,0.1,1.6,0.2,2.4c-0.6-0.6-1.1-1.2-1.7-1.8c0,0,0,0,0,0
					c-0.3-3.8-0.4-7.6-0.4-11.4C73.1,122.2,73.2,120.2,73.3,118.2z"/>
				<path class="st0" d="M75.3,138.8c0,0.3,0.1,0.6,0.1,0.9c0-0.1,0-0.2,0-0.4C75.3,139.2,75.3,139,75.3,138.8z"/>
				<path class="st0" d="M75.2,137.5c0,0.4,0.1,0.9,0.1,1.4C75.3,138.4,75.2,137.9,75.2,137.5L75.2,137.5z"/>
				<path class="st1" d="M74.8,132.4c0.1,0.9,0.1,1.7,0.2,2.6C74.9,134.1,74.8,133.3,74.8,132.4z"/>
				<path class="st1" d="M74.7,129.7c0,0.9,0.1,1.8,0.1,2.7C74.8,131.5,74.7,130.6,74.7,129.7z"/>
				<path class="st1" d="M74.6,127c0,0.9,0,1.8,0.1,2.7C74.7,128.8,74.6,127.9,74.6,127z"/>
				<path class="st0" d="M74.6,144.9l-2.5-8.6c-0.1-0.9-0.1-1.7-0.2-2.6c0.5,0.7,1.1,1.3,1.6,2c0,0,0,0,0,0
					C73.8,138.8,74.1,141.9,74.6,144.9z"/>
				<path class="st2" d="M74.8,151.2c-0.4-0.7-0.8-1.5-1.2-2.2c0,0,0,0,0,0C74,149.7,74.4,150.5,74.8,151.2z"/>
				<path class="st2" d="M73.6,148.9C73.6,149,73.6,149,73.6,148.9c-0.7-1.3-1.3-2.7-2-4.1C72.3,146.2,73,147.6,73.6,148.9z"/>
				<path class="st3" d="M71.6,122.1l1.7-3.8c-0.2,2-0.3,4-0.3,6c0,3.9,0.2,7.7,0.4,11.4c-0.6-0.6-1.1-1.3-1.6-2
					c-0.2-3.1-0.3-6.3-0.3-9.4C71.6,123.5,71.6,122.8,71.6,122.1z"/>
				<path class="st0" d="M73.6,148.9c-0.7-1.3-1.3-2.7-2-4.1c-0.7-1.4-1.3-2.9-1.8-4.4c0,0,0-0.1,0-0.1c-0.6-1.5-1.1-3-1.6-4.5
					c-0.2-0.7-0.5-1.4-0.7-2.1c0-0.1-0.1-0.2-0.1-0.3c-0.2-0.7-0.4-1.4-0.6-2.2c-0.4-1.6-0.8-3.1-1.2-4.7c-0.4-1.6-0.7-3.2-0.9-4.8
					c1.7,3.7,3.8,7.3,6.3,10.8l1.1,3.8C72.4,140.6,72.9,144.8,73.6,148.9z"/>
				<path class="st0" d="M72.1,136.3l-1.1-3.8c0.3,0.4,0.6,0.8,0.9,1.2C71.9,134.6,72,135.4,72.1,136.3z"/>
				<path class="st3" d="M69.4,127l2.2-4.9c0,0.7,0,1.4,0,2.2c0,3.2,0.1,6.3,0.3,9.4c-0.3-0.4-0.6-0.8-0.9-1.2L69.4,127z"/>
				<path class="st2" d="M69.8,140.5c0.6,1.5,1.2,2.9,1.8,4.4C71,143.4,70.4,141.9,69.8,140.5z"/>
				<path class="st2" d="M68.2,135.9c0.5,1.5,1,3,1.6,4.5C69.2,138.9,68.7,137.4,68.2,135.9z"/>
				<path class="st2" d="M67.5,133.8c0.2,0.7,0.4,1.4,0.7,2.1C67.9,135.2,67.7,134.5,67.5,133.8z"/>
				<path class="st2" d="M67.4,133.4c-0.2-0.7-0.4-1.4-0.6-2.2C67,132,67.2,132.7,67.4,133.4z"/>
				<path class="st2" d="M65.6,126.5c0.4,1.6,0.8,3.2,1.2,4.7C66.3,129.7,65.9,128.1,65.6,126.5z"/>
			</g>
			<g>
				<path class="st10" d="M197.6,127.6c0.1,0.2,0.2,0.3,0.2,0.5"/>
				<path class="st10" d="M226.6,157.3c0.8-1.3,1.6-2.6,2.4-3.9c0.8-1.4,1.6-2.9,2.4-4.4c6.7-13.1,10.4-28,10.4-43.9c0-1,0-2,0-3
					c0-0.6,0-1.2-0.1-1.8c0-0.8-0.1-1.5-0.1-2.3c-0.1-1-0.2-2.1-0.3-3.1c-0.1-0.5-0.1-1.1-0.2-1.6c0-0.2-0.1-0.4-0.1-0.6
					c-0.1-0.5-0.1-1-0.2-1.6c0-0.2-0.1-0.5-0.1-0.7c-0.1-0.5-0.1-1-0.2-1.5c-0.1-0.4-0.1-0.9-0.2-1.3c0-0.2-0.1-0.4-0.1-0.6
					c-0.1-0.4-0.2-0.8-0.2-1.3c-0.1-0.5-0.2-1.1-0.3-1.6c0-0.1,0-0.2-0.1-0.3c-0.1-0.6-0.3-1.2-0.4-1.8c0-0.2-0.1-0.3-0.1-0.5
					c-0.2-0.6-0.3-1.3-0.5-1.9c-0.1-0.5-0.3-1-0.4-1.5c-0.1-0.4-0.2-0.8-0.3-1.2c-0.2-0.6-0.4-1.1-0.5-1.7c0-0.1-0.1-0.2-0.1-0.2
					c-0.2-0.7-0.5-1.4-0.7-2.1c-1.2-3.5-2.6-6.9-4.2-10.2c-0.2-0.4-0.4-0.7-0.5-1.1c-0.2-0.4-0.4-0.7-0.6-1.1
					c-0.3-0.5-0.5-1-0.8-1.6c-0.2-0.4-0.4-0.7-0.6-1.1c-0.2-0.4-0.4-0.8-0.7-1.2c-0.1-0.1-0.1-0.2-0.2-0.3c-0.3-0.5-0.6-1.1-0.9-1.6
					c-0.5-0.8-0.9-1.5-1.4-2.2c-0.3-0.5-0.7-1.1-1.1-1.6c-0.3-0.5-0.7-1.1-1.1-1.6c-0.1-0.1-0.2-0.3-0.3-0.4
					c-0.4-0.5-0.8-1.1-1.2-1.6c-0.4-0.5-0.8-1-1.2-1.5c-0.1-0.1-0.2-0.2-0.2-0.3c-0.3-0.4-0.6-0.7-0.9-1.1c-0.3-0.3-0.5-0.7-0.8-1
					c-0.4-0.5-0.8-1-1.3-1.5c-0.9-1-1.9-2.1-2.8-3.1c-0.5-0.5-1-1-1.4-1.5c-1-1-2-1.9-3-2.8c-0.5-0.5-1-0.9-1.6-1.4
					c-0.4-0.4-0.8-0.7-1.2-1c-0.7-0.6-1.4-1.1-2-1.7c-0.4-0.3-0.7-0.6-1.1-0.8c-0.7-0.5-1.4-1.1-2.1-1.6c-0.4-0.3-0.9-0.6-1.3-0.9
					c-0.3-0.2-0.6-0.4-0.9-0.6c-1.1-0.7-2.1-1.4-3.2-2.1c-0.5-0.3-1-0.6-1.5-0.9c-0.6-0.4-1.2-0.7-1.8-1c-0.8-0.4-1.6-0.9-2.4-1.3
					c-0.4-0.2-0.8-0.4-1.2-0.6c-0.7-0.3-1.3-0.6-2-1c-1.2-0.6-2.5-1.1-3.7-1.6c-2.4-1-4.9-1.9-7.4-2.7c-0.8-0.3-1.6-0.5-2.5-0.7
					c-0.5-0.1-1-0.3-1.5-0.4c-0.2-0.1-0.4-0.1-0.6-0.2c-0.5-0.1-0.9-0.2-1.4-0.3c-0.3-0.1-0.5-0.1-0.8-0.2c-0.4-0.1-0.8-0.2-1.2-0.2
					c-0.3-0.1-0.6-0.1-0.9-0.2c-0.4-0.1-0.8-0.2-1.2-0.2c-0.3-0.1-0.7-0.1-1-0.2c-0.4-0.1-0.9-0.1-1.3-0.2c-0.2,0-0.4-0.1-0.6-0.1
					c-0.6-0.1-1.3-0.2-1.9-0.2c-0.7-0.1-1.4-0.2-2.1-0.2c0,0,0,0-0.1,0c17.3,8,38.7,21.9,46.9,43.8"/>
				<path class="st10" d="M227.2,154.7c-0.2,0.9-0.4,1.8-0.6,2.6"/>
				<path class="st10" d="M227.6,152.5c-0.1,0.7-0.3,1.4-0.4,2.1"/>
				<path class="st10" d="M211,124.2c-0.5,2.1-1.1,4.2-1.7,6.1c1.9,1.7,3.7,3.3,5.6,4.9c0.5,0.4,0.9,0.8,1.4,1.2
					c0.4,0.4,0.9,0.8,1.4,1.2c0.4,0.4,0.9,0.8,1.3,1.1c1.3,1.1,2.6,2.2,3.9,3.2c0.1,0.1,0.2,0.2,0.4,0.3c1.1,0.9,2.2,1.8,3.2,2.6
					c0.1,0,0.1,0.1,0.1,0.1c0.7,0.6,1.4,1.1,2,1.6c0,0.2,0,0.3-0.1,0.5c-0.1,0.8-0.2,1.5-0.4,2.2c-0.1,0.8-0.3,1.7-0.5,2.5"/>
				<path class="st10" d="M209.9,63.4c0.9,3.6,1.7,7.1,2.3,10.6c0.2,0.9,0.3,1.8,0.4,2.6c0.2,0.9,0.3,1.8,0.4,2.6
					c0.3,2.4,0.6,4.8,0.8,7.1"/>
				<path class="st10" d="M224.9,94.2c-0.8-2.5-1.6-5.1-2.6-7.7c-0.7-1.9-1.5-3.9-2.4-5.8c-2.4-5.3-5.3-10.6-8.8-15.7
					c-0.4-0.5-0.8-1.1-1.2-1.6c-0.5-0.7-1-1.4-1.6-2.1l-1.4-1.8c-0.5-0.6-0.9-1.2-1.5-1.8l-1.6-1.8c-0.2-0.3-0.5-0.6-0.8-0.8
					l-0.8-0.8c-1.1-1.1-2.1-2.2-3.4-3.1c-4.6-4.1-9.9-7.4-15.4-10c-5.5-2.6-11.2-4.7-16.9-6.2c-11.3-3-22.3-4.2-31.7-4.7
					c-9.4-0.4-17.3-0.2-22.8,0.1c-2.8,0.2-4.9,0.4-6.4,0.5c-1.1,0.1-1.8,0.2-2.1,0.2c-0.1,0-0.2,0-0.2,0s0.8-0.1,2.2-0.4
					c1.5-0.2,3.6-0.6,6.3-0.9c5.5-0.6,13.4-1.4,22.9-1.2c4.8,0,9.9,0.3,15.4,0.9c5.4,0.6,11.1,1.5,16.9,3c5.8,1.5,11.7,3.4,17.4,6.1
					c5.7,2.7,11.2,6.1,16.1,10.4c1.3,1,2.4,2.2,3.5,3.3l0.9,0.9c0.3,0.3,0.5,0.6,0.8,0.9l1.5,1.7l0,0c1.1,1.1,2,2.5,3,3.7
					c1,1.3,1.9,2.6,2.8,3.9c3.6,5.2,6.5,10.7,8.8,16.2c2.4,5.5,4.1,11,5.4,16.3c0.2,0.6,0.3,1.3,0.5,1.9c0.9,4,1.6,7.9,2.1,11.6"/>
				<path class="st10" d="M230.3,109.5c0.1,0.5,0.2,1.1,0.2,1.6c1.1,9.5,1,17.4,0.8,22.9c-0.1,2.8-0.4,4.9-0.5,6.4
					c-0.2,1.5-0.3,2.2-0.3,2.2s0.1-0.8,0.1-2.3c0.1-1.5,0.1-3.6,0.1-6.4c0-2.4-0.1-5.1-0.3-8.3c-0.1-2.2-0.3-4.7-0.6-7.3
					c-0.2-2.3-0.6-4.6-1-7.1c-0.3-1.9-0.6-3.8-1.1-5.8c-0.6-2.9-1.3-5.9-2.2-9c-0.2-0.8-0.5-1.6-0.7-2.4"/>
				<path class="st10" d="M101.7,116.4c-0.5-0.5-1-1-1.5-1.5c-0.4-0.4-0.7-0.8-1.1-1.2c-0.1-0.1-0.2-0.2-0.3-0.3
					c-0.3-0.3-0.5-0.7-0.8-1c-0.7-0.9-1.5-1.8-2.2-2.8c-0.7-1-1.4-2.1-2.1-3.2c-0.6-1.2-1.3-2.3-2-3.6c-0.3-0.6-0.6-1.3-0.9-1.9
					c-0.3-0.7-0.6-1.3-0.8-2c-0.2-0.7-0.5-1.4-0.8-2.1l-0.2-0.4l-0.2-0.6l-0.3-1.1c-0.2-0.7-0.4-1.4-0.6-2.2
					c-0.2-0.7-0.3-1.5-0.5-2.2c-0.1-0.8-0.3-1.5-0.4-2.2c-0.1-0.8-0.2-1.5-0.3-2.3c-0.1-0.7-0.2-1.5-0.2-2.2
					c-0.1-0.8-0.1-1.5-0.2-2.3c0,0,0-0.1,0-0.2c-0.1-3.1-0.1-6.1,0.2-9.2c0.2-3,0.7-5.9,1.2-8.8c0.6-2.8,1.2-5.5,2-8
					c0.7-2.5,1.5-4.8,2.3-7c1.6-4.3,3.3-7.7,4.5-10c0.2-0.3,0.3-0.6,0.4-0.8c0.9-1.6,1.5-2.6,1.6-2.8c0,0,0,0,0,0c0,0,0,0,0,0"/>
				<path class="st10" d="M98.5,34.8c-0.1,0.2-0.7,1.5-1.5,3.8c-0.5,1.2-1,2.7-1.6,4.5c-0.6,1.7-1.2,3.7-1.8,5.8
					c-0.6,2.2-1.2,4.5-1.8,7c-0.6,2.5-1,5.1-1.5,7.9c-0.4,2.8-0.7,5.6-0.9,8.5c-0.1,1.8-0.2,3.7-0.2,5.6c0,0.8,0,1.5,0.1,2.3
					c0,0.3,0,0.7,0,1c0,0.4,0.1,0.8,0.1,1.2c0.1,1.1,0.1,2.1,0.3,3.2c0.1,0.7,0.2,1.4,0.3,2.2c0.1,0.7,0.3,1.4,0.4,2.1
					c0.3,1.4,0.6,2.8,1,4.2c0.4,1.4,0.8,2.7,1.2,4c0.4,1.3,1,2.5,1.5,3.8c0.5,1.2,1.1,2.4,1.7,3.5c0.6,1.1,1.3,2.2,1.8,3.2
					c0.4,0.7,0.8,1.3,1.2,1.9c0.2,0.3,0.5,0.7,0.7,1c0.3,0.4,0.6,0.9,1,1.3c0.3,0.4,0.7,0.8,1,1.2c0.6,0.8,1.2,1.6,1.8,2.2
					c0,0,0,0,0,0"/>
				<path class="st10" d="M73.5,135.6c-0.6-0.6-1.1-1.3-1.6-2c-0.3-0.4-0.6-0.8-0.9-1.2c-2.6-3.4-4.6-7.1-6.3-10.8
					c0.3,1.6,0.6,3.2,0.9,4.8c0.4,1.6,0.8,3.2,1.2,4.7c0.2,0.7,0.4,1.5,0.6,2.2c0,0.1,0.1,0.2,0.1,0.3c0.2,0.7,0.4,1.4,0.7,2.1
					c0.5,1.5,1,3,1.6,4.5c0,0,0,0.1,0,0.1c0.6,1.5,1.2,2.9,1.8,4.4c0.6,1.4,1.3,2.8,2,4.1c0.4,0.8,0.8,1.5,1.2,2.3
					c0.3,0.6,0.7,1.2,1,1.8c0.1,0.1,0.1,0.2,0.2,0.3c0.1,0.1,0.2,0.3,0.2,0.4c0.3,0.5,0.5,0.9,0.8,1.4c0.1,0.1,0.1,0.2,0.2,0.3
					c0.1,0.2,0.2,0.3,0.3,0.5c0.3,0.5,0.6,0.9,0.9,1.4c0,0,0,0,0,0v0"/>
				<path class="st10" d="M76.1,145.1c-0.1-0.8-0.2-1.7-0.3-2.5c-0.1-0.7-0.2-1.4-0.2-2.1c0-0.1,0-0.3,0-0.4c0-0.1,0-0.2,0-0.2
					c0-0.3-0.1-0.6-0.1-0.9c-0.1-0.5-0.1-0.9-0.1-1.4l0,0c-0.6-0.6-1.1-1.2-1.7-1.8"/>
				<path class="st10" d="M78.4,157.3c-0.3-1.4-0.7-2.8-0.9-4.2c-0.1-0.2-0.1-0.4-0.1-0.6c-0.2-0.8-0.3-1.6-0.5-2.4
					c-0.3-1.6-0.5-3.1-0.8-4.7"/>
				<path class="st10" d="M153.6,103.5c10.7,12.5,31.6,24.5,46.9,29"/>
				<path class="st10" d="M197.6,127.6c-0.1-0.1-0.1-0.2-0.2-0.3c-0.2-0.4-0.4-0.8-0.6-1.2c0-0.1,0-0.1-0.1-0.2
					c-0.4-0.9-0.9-1.7-1.3-2.6"/>
				<path class="st10" d="M200.4,132.5c-0.3-0.4-0.5-0.8-0.8-1.3c-0.3-0.4-0.5-0.9-0.8-1.3c0,0-0.1-0.1-0.1-0.1
					c-0.2-0.4-0.4-0.8-0.7-1.2c-0.1-0.2-0.2-0.3-0.3-0.5c-0.1-0.1-0.2-0.3-0.2-0.5"/>
				<path class="st10" d="M156.4,114.2c-0.1-0.2-0.1-0.3-0.2-0.5c-0.1-0.3-0.2-0.6-0.3-1c-0.3,0.1-0.6,0.1-0.9,0.2
					c-0.4,0.1-0.9,0.1-1.4,0.1c-2.5,0-5.2-0.7-8.1-1.8"/>
				<path class="st10" d="M124.8,98.5L124.8,98.5c0.9,1,1.9,2,2.8,3c8.8,9,19.3,16.2,32.8,23.4c0.1,0,0.2,0.1,0.2,0.1
					c-0.1-0.1-0.1-0.2-0.2-0.4c-0.2-0.4-0.4-0.7-0.5-1.1c-0.2-0.4-0.3-0.8-0.5-1.1c-0.6-1.3-1.1-2.6-1.5-3.9
					c-0.1-0.4-0.3-0.8-0.4-1.2c-0.3-0.8-0.5-1.5-0.8-2.2c-0.1-0.3-0.2-0.6-0.3-0.9"/>
				<path class="st10" d="M140.8,109c-8-4.1-15.3-9.9-16-10.4c0,0,0,0,0,0"/>
				<path class="st10" d="M125.2,109.3c-2.2,0.1-4.6-0.7-6.9-1.9c-6.9-3.7-13.2-11.4-13.2-11.4l0.3,0.6c0.2,0.3,0.3,0.6,0.6,1
					c0.2,0.3,0.4,0.7,0.7,1.2c0.4,0.6,0.8,1.3,1.4,2.1c0.2,0.4,0.5,0.7,0.8,1.1c1,1.4,2.2,3,3.6,4.6c0.2,0.2,0.4,0.5,0.6,0.7
					c0.3,0.3,0.5,0.6,0.8,0.9c0.3,0.3,0.6,0.6,0.9,0.9c0.3,0.3,0.6,0.6,0.9,0.9c0.6,0.6,1.3,1.3,2,1.9c0.3,0.3,0.6,0.5,0.9,0.8
					c0,0,0.1,0.1,0.1,0.1c0.3,0.3,0.7,0.6,1.1,0.9c0.7,0.6,1.5,1.2,2.3,1.8c0.3,0.3,0.7,0.5,1.1,0.8c0.8,0.6,1.6,1.1,2.5,1.7
					c0-0.5-0.1-1.1-0.1-1.6c0-0.5-0.1-1-0.1-1.4c-0.1-1.1-0.1-2.2-0.2-3.3c0-0.4,0-0.8,0-1.1C125.3,110.1,125.3,109.7,125.2,109.3z"
					/>
				<path class="st10" d="M182.1,120.3c-4.6-1.1-8.1-2.3-8.1-2.3l-19.9-14.1l-0.5-0.4c0,0-11.9-10.2-24.7-25.5
					c-4.3-5.2-8.7-10.9-12.8-17.1c-0.3-0.4-0.5-0.8-0.8-1.2c-0.3-0.4-0.5-0.8-0.8-1.3c-2.6-4.2-5.1-8.5-7.2-12.9
					c2.8,3.7,5.9,7.7,9.4,11.9c0.3,0.4,0.7,0.8,1,1.2c0.3,0.4,0.7,0.8,1,1.2c5,6,10.6,12.5,16.7,18.8c2.4,2.6,4.9,5.1,7.5,7.7"/>
				<path class="st10" d="M195.4,123.3c-0.2-0.4-0.4-0.9-0.6-1.3h0c-3.1,0-6.4-0.4-9.5-1"/>
				<path class="st10" d="M174.2,112c6.9,4.4,13.9,7.9,20.7,10"/>
				<path class="st10" d="M196,128.5C196,128.5,196,128.5,196,128.5c-0.2-0.1-2.1-1.1-5.1-2.8c-0.8-0.5-1.7-1-2.7-1.5
					c-0.5-0.3-1-0.6-1.5-0.9c-0.5-0.3-1-0.7-1.6-1c-0.9-0.6-1.9-1.3-3-2c-1.4-0.9-2.8-1.8-4.3-2.9c-0.6-0.5-1.3-1-2-1.5
					c-2-1.5-4.1-3.1-6.3-4.8c-2.9-2.3-5.8-4.8-8.8-7.4c-3-2.7-6-5.5-9-8.4c-2.9-3-6-6-8.9-9c0,0,0,0-0.1-0.1c-2.3-2.6-4.8-5.1-7-7.6
					c-0.5-0.6-1-1.1-1.5-1.7c-2.8-3.1-5.5-6.3-8-9.3c-2.4-2.8-4.6-5.6-6.7-8.2c-0.2-0.2-0.4-0.5-0.5-0.7c-0.1-0.2-0.3-0.3-0.4-0.5
					c-0.3-0.4-0.7-0.8-1-1.2c-1.8-2.2-3.3-4.4-4.9-6.4c-3.8-5.1-6.8-9.5-8.9-12.6c-1-1.5-1.8-2.8-2.4-3.6c-0.5-0.7-0.7-1.2-0.8-1.3"
					/>
				<path class="st10" d="M100.8,33C100.8,33,100.8,33,100.8,33c0.2,0.2,1.5,1.8,3.7,4.5c1.2,1.4,2.6,3.2,4.2,5.2
					c1.7,2,3.5,4.2,5.5,6.7c1.8,2.1,3.6,4.3,5.6,6.6c0.3,0.4,0.7,0.8,1,1.2l0,0c0.3,0.4,0.7,0.8,1,1.2c2.1,2.4,4.2,4.9,6.5,7.5
					c1.3,1.5,2.6,3,4,4.5c1.4,1.5,2.8,3,4.2,4.6c1.2,1.3,2.4,2.7,3.7,4c1.6,1.7,3.3,3.5,4.9,5.2c2.9,3.1,5.9,6.1,8.8,9
					c3,2.9,5.9,5.8,8.8,8.5c3,2.6,5.7,5.3,8.5,7.7c1.1,0.9,2.1,1.7,3.1,2.6c1.6,1.4,3.2,2.7,4.7,4c1.1,0.8,2.1,1.6,3.1,2.3
					c1.2,0.9,2.3,1.8,3.3,2.6c0.2,0.1,0.3,0.2,0.5,0.4c0.5,0.4,1,0.8,1.5,1.1c0.5,0.4,1,0.7,1.4,1c0.9,0.6,1.8,1.2,2.5,1.7
					c2.9,2,4.6,3.2,4.8,3.3"/>
				<path class="st10" d="M222.9,117.1c0.6-0.4,1.2-0.1,1.5,1.1c0-2-0.3-4.6-0.9-7.8c-1.4-6.5-4.3-15.1-9.6-24.2
					c-3.8-6.5-8.8-13.3-15.2-19.7c-1.7-1.7-3.6-3.4-5.5-5.1c-1.8-1.5-3.6-3-5.6-4.4c-18.4-13.7-45.3-24-83.9-24.1
					c-0.1,0-0.1,0-0.1,0"/>
				<path class="st10" d="M105.6,33.6c5.4,1.6,20.6,6.5,38.2,16.5c0.8,0.4,1.5,0.8,2.3,1.3c0.8,0.4,1.5,0.9,2.3,1.4
					c13.9,8.4,29,20,41.6,35.5c6.6,8,12.5,17.1,17.4,27.4c1.3,2.8,2.5,5.6,3.7,8.6c0.6,1.4,1.1,2.8,1.6,4.3c1.2,3.6,4.5-2.9,7.3-7.5
					c0.7-1.1,1.4-2.2,2-2.9"/>
				<path class="st10" d="M108,114.3c-1.6,1.1-3.2,1.7-4.9,2c-0.5,0.1-1,0.1-1.5,0.2c-0.9,0.1-1.9,0-2.8-0.1c-6.1-0.8-11-4.8-11-4.8
					c3.3,3.6,7.4,6.3,11.2,8.3c7.4,3.9,14.1,5.2,14.1,5.2c0,0,0,0,0,0c-0.3-0.5-0.7-1-1-1.5c-0.3-0.4-0.5-0.9-0.8-1.4
					c-0.1-0.2-0.2-0.4-0.3-0.6c-0.2-0.3-0.3-0.6-0.4-0.8c-0.1-0.2-0.2-0.4-0.3-0.5c-0.2-0.4-0.4-0.8-0.5-1.2
					c-0.3-0.6-0.6-1.2-0.8-1.8c-0.2-0.4-0.3-0.8-0.5-1.2c0-0.1-0.1-0.2-0.1-0.3C108.3,115.2,108.2,114.7,108,114.3z"/>
				<path class="st10" d="M74.6,124.3L74.6,124.3c1.9,2.2,4.1,4.4,6.5,6.3c3.9,3.2,8.5,5.8,13.7,7.2c-0.3-0.5-0.5-1.1-0.8-1.6
					c-0.3-0.7-0.6-1.3-0.9-2c-0.2-0.5-0.4-1-0.6-1.5c-0.2-0.4-0.3-0.8-0.5-1.2c-0.2-0.4-0.3-0.8-0.4-1.2c-0.1-0.2-0.1-0.4-0.2-0.5
					c-0.1-0.2-0.1-0.4-0.2-0.6c-0.1-0.3-0.2-0.6-0.3-0.9c0-0.2-0.1-0.3-0.2-0.5c-0.2,0.1-0.5,0.1-0.8,0.2c-0.9,0.2-1.7,0.3-2.6,0.4"
					/>
				<path class="st10" d="M86.8,128.4c-1.8,0-3.5-0.2-5-0.6c-4.2-1.1-7-3.2-7.2-3.4"/>
				<path class="st10" d="M103.5,33c0,0,0.7,0.2,2.1,0.6c0,0,0,0,0,0"/>
			</g>
		</g>
	</g>
	<path class="st11" d="M122.9,292.2c0,0,0,32.3,0.4,35.3c0.3,2.9,0.5-5.9,4.7-5.4s15.2-0.2,17,0.4c1.8,0.6,3-10.4,3-10.4
		s2.7-5.5,5.6-1.9c2.9,3.6,5.5,10.4,5.4,12.4c-0.1,2,13.7-2.3,16.5,0c2.8,2.3,4.7,4.1,4.7,4.1s3.1-30,1.9-34.3L122.9,292.2z"/>
	<path class="st12" d="M183.2,239.2c0,0,6.9,32.3,7.4,37s1.6,4.9,4.9,4.6c3.4-0.3-3.4-48.6-8.8-50.1S183.2,239.2,183.2,239.2z"/>
	<path class="st12" d="M106.3,280.9c0,0,5.9,2.5,7.4,0c1.4-2.5,2.2-43,12-40l-4.6-12.5C121.1,228.4,108.5,237.3,106.3,280.9z"/>
	<ellipse class="st13" cx="110.7" cy="283.1" rx="6.1" ry="4.6"/>
	<ellipse class="st14" cx="194.5" cy="281.6" rx="5.3" ry="4.1"/>
	<path class="st15" d="M106.3,279.6c0,0-0.7-34,10.5-47.7s5.2-5.2,5.2-5.2"/>
	<path class="st15" d="M119.9,249c0,0-3.1,10.5-5,29.5"/>
	<line class="st15" x1="184.1" y1="249" x2="191" y2="278.6"/>
	<path class="st15" d="M189.7,231.1c0,0,9.6,37.1,7.7,47.1"/>
</g>
<g id="Layer_3">
	<path class="st16" d="M140.8,197h29.9C170.6,197,159,204.9,140.8,197z"/>
</g>
</svg>
